<?xml version="1.0" encoding="UTF-8" standalone="no"?>
<!-- Created with Inkscape (http://www.inkscape.org/) -->

<svg
   width="210mm"
   height="297mm"
   viewBox="0 0 210 297"
   version="1.1"
   id="svg5"
   xml:space="preserve"
   inkscape:version="1.2.2 (b0a8486541, 2022-12-01)"
   sodipodi:docname="lotuslogo.svg"
   xmlns:inkscape="http://www.inkscape.org/namespaces/inkscape"
   xmlns:sodipodi="http://sodipodi.sourceforge.net/DTD/sodipodi-0.dtd"
   xmlns:xlink="http://www.w3.org/1999/xlink"
   xmlns="http://www.w3.org/2000/svg"
   xmlns:svg="http://www.w3.org/2000/svg"><sodipodi:namedview
     id="namedview7"
     pagecolor="#ffffff"
     bordercolor="#000000"
     borderopacity="0.25"
     inkscape:showpageshadow="2"
     inkscape:pageopacity="0.0"
     inkscape:pagecheckerboard="0"
     inkscape:deskcolor="#d1d1d1"
     inkscape:document-units="mm"
     showgrid="false"
     inkscape:zoom="0.43800754"
     inkscape:cx="341.31833"
     inkscape:cy="485.15147"
     inkscape:window-width="1396"
     inkscape:window-height="700"
     inkscape:window-x="0"
     inkscape:window-y="0"
     inkscape:window-maximized="1"
     inkscape:current-layer="layer1" /><defs
     id="defs2"><linearGradient
       inkscape:collect="always"
       id="linearGradient9417"><stop
         style="stop-color:#590abb;stop-opacity:0.96624464;"
         offset="0"
         id="stop9413" /><stop
         style="stop-color:#0c10c9;stop-opacity:0.9671067;"
         offset="1"
         id="stop9415" /></linearGradient><linearGradient
       inkscape:collect="always"
       xlink:href="#linearGradient9417"
       id="linearGradient9419"
       x1="32.982852"
       y1="132.8374"
       x2="170.4012"
       y2="132.8374"
       gradientUnits="userSpaceOnUse" /></defs><g
     inkscape:label="Layer 1"
     inkscape:groupmode="layer"
     id="layer1"><ellipse
       style="opacity:1;fill:#dfc0ff;fill-opacity:1;stroke-width:100;stroke-dasharray:none"
       id="path9421"
       cx="100.17268"
       cy="127.57369"
       rx="92.072136"
       ry="86.431473" /><path
       style="fill:url(#linearGradient9419);stroke-width:0.10931;fill-opacity:1"
       d="m 100.15942,211.16772 c -0.380728,-0.23326 -1.522908,-0.93813 -2.538187,-1.56638 -1.015275,-0.62826 -2.676635,-1.67756 -3.69191,-2.33178 -1.015276,-0.65422 -2.910264,-1.91207 -4.211086,-2.79522 -1.300822,-0.88315 -3.273687,-2.25867 -4.384144,-3.05671 -1.110458,-0.79804 -2.486271,-1.80236 -3.057364,-2.23182 -0.571092,-0.42946 -1.817112,-1.38585 -2.768933,-2.12531 -0.95182,-0.73947 -2.561263,-2.02275 -3.576538,-2.85175 -1.015276,-0.829 -3.033206,-2.55588 -4.484291,-3.83753 -1.451083,-1.28165 -3.534452,-3.19247 -4.629705,-4.24625 -1.095254,-1.05379 -2.626148,-2.56845 -3.401985,-3.36591 -0.775838,-0.79747 -1.967664,-2.0558 -2.648502,-2.7963 -0.680838,-0.7405 -1.836227,-2.03532 -2.56753,-2.87736 -0.731303,-0.84206 -1.867057,-2.1936 -2.523898,-3.00343 -0.656839,-0.80984 -1.929333,-2.45113 -2.827764,-3.64732 -0.89843,-1.19619 -2.064157,-2.80406 -2.590503,-3.57304 -0.526346,-0.76898 -1.406622,-2.09722 -1.956169,-2.95165 -0.549546,-0.85442 -1.45239,-2.30974 -2.00632,-3.23404 -0.55393,-0.9243 -1.424143,-2.46226 -1.933808,-3.41769 -0.509664,-0.95543 -1.309045,-2.51332 -1.776403,-3.46198 -0.467358,-0.94864 -1.236273,-2.60312 -1.708699,-3.67661 -0.472428,-1.07347 -1.121628,-2.62755 -1.442671,-3.45349 -0.321042,-0.82594 -0.893804,-2.38721 -1.272806,-3.46948 -0.379001,-1.08227 -0.946617,-2.82995 -1.261369,-3.88374 -0.314751,-1.05379 -0.786811,-2.7663 -1.049021,-3.80559 -0.262209,-1.03929 -0.680963,-2.88018 -0.930562,-4.09088 -0.2496,-1.21069 -0.608681,-3.20326 -0.797956,-4.42794 -0.189276,-1.22467 -0.449219,-3.22868 -0.57765,-4.45335 -0.12843,-1.22468 -0.286303,-3.06557 -0.350828,-4.09088 -0.06453,-1.02531 -0.150014,-3.14583 -0.189976,-4.71227 -0.04141,-1.62322 -0.01668,-4.05067 0.05751,-5.64437 0.07159,-1.53797 0.182143,-3.42546 0.245672,-4.19445 0.06353,-0.76898 0.19383,-2.14382 0.289558,-3.05521 0.09573,-0.911384 0.279695,-2.426043 0.408816,-3.365908 0.12912,-0.939866 0.363329,-2.477828 0.520463,-3.417693 0.157134,-0.939866 0.442701,-2.50113 0.634591,-3.469476 0.191892,-0.968347 0.558479,-2.692728 0.81464,-3.831959 0.25616,-1.139231 0.508487,-2.112125 0.560725,-2.161987 0.05393,-0.05148 0.457009,-0.01727 0.932629,0.07915 0.490049,0.09934 0.8803,0.13152 0.940433,0.07754 0.06013,-0.05398 -0.04339,-0.352218 -0.249483,-0.718701 l -0.352268,-0.626432 1.756733,-0.822379 c 0.966204,-0.452309 2.223992,-1.069058 2.795085,-1.370553 0.571092,-0.301496 1.791153,-1.003295 2.711247,-1.559553 0.920093,-0.556259 2.229573,-1.412806 2.909956,-1.903437 0.680381,-0.490631 1.723816,-1.298092 2.318743,-1.794358 0.594926,-0.496265 1.467185,-1.275139 1.938351,-1.730831 0.471168,-0.455693 1.118985,-1.108161 1.439595,-1.449931 0.32061,-0.341769 0.86615,-0.970935 1.212311,-1.398147 0.346159,-0.427211 0.892638,-1.149587 1.214396,-1.60528 0.321758,-0.455692 0.84866,-1.271278 1.170892,-1.812413 0.322231,-0.541134 0.801253,-1.425356 1.064492,-1.964937 0.263239,-0.53958 0.703849,-1.58819 0.979132,-2.330245 0.275283,-0.742054 0.611423,-1.768633 0.746976,-2.281287 0.135553,-0.512654 0.322088,-1.281635 0.414521,-1.708847 0.09243,-0.427211 0.244975,-1.359309 0.338983,-2.071329 0.09401,-0.712019 0.172103,-1.550907 0.173545,-1.864196 0.0014,-0.313288 0.03442,-0.676165 0.07328,-0.806393 0.06641,-0.222551 0.123789,-0.235761 0.954803,-0.219836 0.795698,0.01525 0.948097,-0.01546 1.523461,-0.306945 0.351625,-0.178139 0.690226,-0.323889 0.752445,-0.323889 0.06222,0 0.364883,0.407793 0.672587,0.906206 0.307703,0.498414 0.975306,1.512071 1.483563,2.252571 0.508256,0.7405 1.26286,1.78911 1.676895,2.330245 0.414036,0.541135 1.205193,1.519838 1.758126,2.174895 0.552932,0.655058 1.520339,1.726971 2.14979,2.382029 0.629451,0.655057 1.734637,1.694776 2.455969,2.310484 0.721331,0.615709 1.833469,1.497534 2.471418,1.959611 0.637948,0.462076 1.733186,1.179248 2.433862,1.593715 0.700676,0.414467 1.920737,1.055606 2.711247,1.424754 0.790509,0.369148 1.982424,0.855438 2.648699,1.080645 0.666274,0.225207 1.652707,0.528467 2.192072,0.673913 0.539365,0.145445 1.525797,0.356309 2.192072,0.468583 0.666274,0.112275 1.765174,0.261427 2.441999,0.331446 0.837695,0.08666 1.998008,0.105173 3.634225,0.05798 1.321998,-0.03813 2.669153,-0.09513 2.993663,-0.126654 l 0.59004,-0.05732 0.14514,0.837578 c 0.0798,0.460668 0.17774,0.836865 0.21758,0.835993 0.0398,-8.29e-4 0.13498,-0.03728 0.21144,-0.08091 0.10314,-0.05884 0.11195,-0.251254 0.0341,-0.745394 -0.0577,-0.366342 -0.0927,-0.67696 -0.0779,-0.690262 0.0148,-0.0133 0.752258,-0.120219 1.638758,-0.237592 0.88649,-0.117373 2.33541,-0.332163 3.2198,-0.477311 0.88439,-0.145148 2.39,-0.444208 3.3458,-0.664575 0.95579,-0.220369 2.49061,-0.618574 3.4107,-0.884901 0.92009,-0.266328 2.35632,-0.734593 3.1916,-1.040588 0.83528,-0.305997 2.13322,-0.827862 2.88431,-1.159699 0.75108,-0.331837 1.72902,-0.785372 2.1732,-1.007856 0.44419,-0.222482 1.30899,-0.694474 1.92179,-1.048869 0.61279,-0.354396 1.52135,-0.912897 2.01902,-1.241116 0.49766,-0.328217 1.3714,-0.949262 1.94167,-1.380098 0.57026,-0.430838 1.65101,-1.33628 2.40165,-2.012094 0.75065,-0.675816 1.84754,-1.771031 2.43753,-2.433812 0.58999,-0.662782 1.40861,-1.647804 1.81915,-2.188939 0.41054,-0.541135 1.00816,-1.380023 1.32806,-1.864196 0.3199,-0.484173 0.77234,-1.194898 1.00544,-1.579388 0.23309,-0.384491 0.4487,-0.699074 0.47914,-0.699074 0.0304,0 0.36387,0.139815 0.74098,0.310699 0.59211,0.268313 0.81201,0.3107 1.61192,0.3107 h 0.92627 v 0.765775 c 0,0.421176 0.0535,1.248413 0.1188,1.838305 0.0653,0.58989 0.19934,1.515275 0.29775,2.05641 0.0984,0.541135 0.30318,1.430271 0.45504,1.975859 0.15186,0.545588 0.46301,1.477686 0.69146,2.071329 0.22845,0.593643 0.71716,1.63861 1.08605,2.322149 0.36888,0.683538 1.03066,1.732149 1.47062,2.330245 0.43996,0.598096 1.1907,1.506892 1.66832,2.019546 0.4776,0.512653 1.33057,1.330139 1.89547,1.816633 0.5649,0.486494 1.43555,1.175841 1.93478,1.531883 0.49923,0.356042 1.48566,0.987589 2.19207,1.403438 0.70641,0.41585 1.77659,1.003002 2.37819,1.304783 0.6016,0.301782 1.58803,0.755127 2.19207,1.007434 0.60405,0.252307 1.51361,0.613402 2.02124,0.802433 0.50764,0.18903 1.57195,0.553588 2.36513,0.810127 0.79319,0.25654 2.06517,0.632577 2.82662,0.835639 0.76146,0.203061 1.5998,0.418347 1.86298,0.478414 l 0.47849,0.109209 -0.21369,0.745777 c -0.11754,0.410177 -0.20063,0.757512 -0.18465,0.771855 0.016,0.01434 0.38182,-0.06892 0.81299,-0.18504 0.43116,-0.116117 0.80556,-0.191699 0.83201,-0.167962 0.0264,0.02374 0.33351,1.017578 0.68236,2.208534 0.34887,1.190957 0.89045,3.167382 1.20352,4.392055 0.31309,1.224673 0.77816,3.182079 1.03352,4.349791 0.25535,1.167712 0.61995,2.98744 0.81021,4.04384 0.19026,1.056401 0.4745,2.827387 0.63166,3.935522 0.15716,1.10815 0.36655,2.73718 0.46531,3.62008 0.0988,0.88291 0.26583,2.65389 0.37127,3.93553 0.1339,1.62774 0.19213,3.64158 0.19315,6.68004 10e-4,2.39238 -0.0611,5.23528 -0.13773,6.31755 -0.0766,1.08227 -0.24155,2.9299 -0.36663,4.10584 -0.12508,1.17594 -0.3565,2.96864 -0.51426,3.98377 -0.15776,1.01514 -0.44578,2.66288 -0.64005,3.66165 -0.19427,0.99877 -0.55933,2.67813 -0.81125,3.73192 -0.25191,1.05379 -0.71277,2.80148 -1.02412,3.88375 -0.31135,1.08226 -0.90565,2.98093 -1.32068,4.21925 -0.41502,1.23831 -1.19339,3.33553 -1.72971,4.66049 -0.5363,1.32495 -1.31038,3.13137 -1.72015,4.01428 -0.40977,0.8829 -1.04224,2.21114 -1.40546,2.95164 -0.36324,0.7405 -1.17202,2.27846 -1.7973,3.41769 -0.62527,1.13924 -1.57792,2.80348 -2.117,3.69831 -0.53906,0.89484 -1.4598,2.36289 -2.04606,3.26234 -0.58628,0.89946 -1.60667,2.40209 -2.26753,3.33919 -0.66086,0.9371 -1.51568,2.12553 -1.89959,2.64095 -0.38391,0.51542 -1.27107,1.6595 -1.97145,2.5424 -0.70038,0.8829 -1.8452,2.28105 -2.54405,3.10699 -0.69885,0.82595 -1.78982,2.08428 -2.42437,2.7963 -0.63456,0.71202 -1.72574,1.90044 -2.42486,2.64094 -0.69912,0.7405 -2.10291,2.18525 -3.11955,3.21056 -1.01663,1.02531 -3.35404,3.23325 -5.19424,4.90653 -1.8402,1.6733 -4.28033,3.81864 -5.42252,4.76745 -1.14218,0.94881 -2.75162,2.26266 -3.57653,2.91966 -0.82492,0.65702 -2.35648,1.84494 -3.40349,2.63986 -1.047,0.7949 -2.70836,2.02887 -3.69191,2.74216 -0.98354,0.71327 -2.70817,1.93398 -3.8325,2.71268 l -2.04424,1.41581 -0.54317,-0.64365 c -0.29874,-0.354 -0.55153,-0.6555 -0.56177,-0.67 -0.0103,-0.0145 -0.1698,0.0225 -0.35458,0.0822 -0.24633,0.0796 -0.51648,0.37016 -1.01236,1.089 -0.372,0.53926 -0.72483,1.00737 -0.78408,1.04023 -0.0592,0.0329 -0.44183,-0.13566 -0.8502,-0.3745 l -0.74251,-0.43427 -0.72318,0.50827 c -0.39774,0.27955 -0.79152,0.54547 -0.87506,0.59092 -0.0945,0.0514 -0.20768,0.0142 -0.29943,-0.0985 -0.13359,-0.16399 -0.15415,-0.15141 -0.21755,0.13318 l -0.07,0.31428 -0.72659,-0.13991 c -0.39963,-0.0769 -0.83043,-0.14093 -0.95734,-0.1422 -0.16144,-0.002 -0.39953,0.23059 -0.79275,0.77311 -0.3091,0.42648 -0.56869,0.77305 -0.57686,0.77016 -0.008,-0.003 -0.32636,-0.19609 -0.70709,-0.42934 z m 0.93349,-4.3269 0.0764,-0.51721 -0.90183,-1.11493 c -0.495998,-0.61322 -1.341218,-1.67419 -1.878268,-2.35773 -0.53704,-0.68354 -1.582908,-2.05839 -2.324146,-3.05521 -0.741236,-0.99683 -1.918063,-2.628 -2.615168,-3.62483 -0.697107,-0.99683 -1.649616,-2.39497 -2.11669,-3.10699 -0.467074,-0.71202 -1.143586,-1.76063 -1.50336,-2.33025 -0.359773,-0.56961 -0.993417,-1.59492 -1.408096,-2.27846 -0.414679,-0.68354 -1.376786,-2.36131 -2.138017,-3.72839 -0.76123,-1.36708 -1.824849,-3.37133 -2.363595,-4.45389 -0.538747,-1.08255 -1.328943,-2.73702 -1.755992,-3.67661 -0.427048,-0.93957 -1.076048,-2.43069 -1.442222,-3.31359 -0.366174,-0.88291 -1.032717,-2.60729 -1.481207,-3.83196 -0.448491,-1.22468 -1.053417,-2.96688 -1.344281,-3.87157 -0.290864,-0.90468 -0.811666,-2.67567 -1.157337,-3.93552 -0.345671,-1.25986 -0.813304,-3.12953 -1.039182,-4.15484 -0.225879,-1.02531 -0.562659,-2.72638 -0.748399,-3.78017 -0.185741,-1.05379 -0.442863,-2.70827 -0.571383,-3.67661 -0.12852,-0.96835 -0.317104,-2.57622 -0.419074,-3.57304 -0.116375,-1.13765 -0.208132,-3.43186 -0.246455,-6.16221 -0.03839,-2.73508 -0.0112,-5.13792 0.07325,-6.4729 0.07387,-1.16771 0.210113,-2.84549 0.30277,-3.72839 0.09266,-0.88291 0.27346,-2.35096 0.401786,-3.26235 0.128325,-0.91138 0.362323,-2.37944 0.519994,-3.26234 0.157671,-0.8829 0.52834,-2.68507 0.823709,-4.00482 l 0.537035,-2.39953 -1.41621,-1.52006 c -0.778915,-0.83603 -2.280121,-2.38912 -3.336012,-3.4513 -1.055891,-1.06219 -3.217739,-3.11488 -4.804107,-4.56153 -1.586368,-1.44666 -3.714985,-3.33476 -4.73026,-4.19579 -1.015276,-0.86103 -2.787587,-2.31648 -3.938469,-3.23435 -1.150881,-0.91786 -3.019911,-2.364634 -4.153399,-3.215051 -1.133488,-0.850416 -2.969443,-2.194189 -4.079901,-2.98616 -1.110457,-0.791972 -3.420786,-2.376595 -5.134063,-3.521386 -1.713277,-1.14479 -3.564429,-2.370332 -4.11367,-2.723427 -0.549241,-0.353094 -1.04827,-0.641989 -1.108952,-0.641989 -0.06068,0 -0.171136,0.267978 -0.245453,0.595507 -0.07432,0.327529 -0.337568,1.597512 -0.585001,2.822185 -0.247433,1.224674 -0.555451,2.855845 -0.684486,3.624826 -0.129033,0.768981 -0.313233,1.910801 -0.409331,2.537378 -0.0961,0.626577 -0.276798,2.001422 -0.401553,3.05521 -0.124755,1.053797 -0.281652,2.545147 -0.348661,3.314127 -0.06701,0.76898 -0.174906,2.21374 -0.239776,3.21056 -0.06487,0.99683 -0.118194,3.6067 -0.118495,5.79972 -3.46e-4,2.432 0.06829,4.95686 0.175923,6.47291 0.09706,1.36707 0.28341,3.39439 0.414109,4.50514 0.130701,1.11075 0.390158,2.96803 0.576572,4.12729 0.186415,1.15926 0.521046,2.97685 0.743627,4.03909 0.22258,1.06224 0.643565,2.86344 0.935522,4.00268 0.291956,1.13923 0.813835,2.98012 1.159733,4.09087 0.345897,1.11075 0.94053,2.88174 1.321406,3.93553 0.380876,1.05378 0.921336,2.48442 1.201024,3.1792 0.279686,0.69477 0.868651,2.06962 1.30881,3.05521 0.440159,0.98559 1.094962,2.39785 1.455119,3.13835 0.360157,0.7405 1.27113,2.46488 2.024384,3.83196 0.753254,1.36707 1.934406,3.39439 2.624783,4.50514 0.690377,1.11075 1.712824,2.69532 2.272104,3.52126 0.559282,0.82594 1.721526,2.45565 2.582766,3.62157 0.86124,1.16592 2.209301,2.91361 2.995691,3.88374 0.786389,0.97014 2.057375,2.48626 2.824412,3.36916 0.767037,0.88291 1.914287,2.16454 2.549444,2.84808 0.635156,0.68354 1.699794,1.80206 2.365861,2.4856 0.666066,0.68354 1.757837,1.77875 2.426158,2.43381 0.66832,0.65506 2.358033,2.23346 3.754917,3.50757 1.396883,1.27409 3.553271,3.16159 4.791973,4.19444 1.238702,1.03283 3.081773,2.53289 4.095714,3.33346 1.01394,0.80058 2.596331,2.01568 3.516425,2.70025 0.920093,0.68456 2.555494,1.87318 3.634224,2.64137 1.07873,0.76819 2.895843,2.027 4.038028,2.79736 1.142184,0.77035 2.933338,1.95301 3.980341,2.62813 1.047003,0.67512 2.498929,1.59319 3.226509,2.04018 1.216448,0.7473 1.329818,0.79583 1.409188,0.60321 0.0475,-0.11522 0.12072,-0.44223 0.16276,-0.72669 z m 5.23088,-0.98717 0.47412,-0.67391 -0.56582,-1.94114 c -0.39923,-1.36966 -0.58541,-1.86492 -0.63236,-1.68223 -0.0366,0.1424 -0.20572,1.10263 -0.37584,2.13385 l -0.30929,1.87492 0.39134,0.47718 c 0.21524,0.26243 0.42563,0.47897 0.46754,0.4812 0.0419,0.002 0.28954,-0.29922 0.55031,-0.66987 z m 6.93038,-2.62956 c 0.92009,-0.65433 2.71124,-1.96704 3.98034,-2.91715 1.26909,-0.9501 3.11216,-2.36942 4.09571,-3.15405 0.98355,-0.78463 2.74874,-2.23077 3.92266,-3.21365 1.17391,-0.98288 3.51214,-3.03832 5.19609,-4.56764 1.68394,-1.52933 3.7614,-3.47966 4.61658,-4.33408 0.85518,-0.85443 2.15568,-2.18266 2.89,-2.95165 0.73432,-0.76898 1.90269,-2.02731 2.59635,-2.79629 0.69368,-0.76898 1.83407,-2.07392 2.53423,-2.89986 0.70015,-0.82594 1.84628,-2.22409 2.54693,-3.10699 0.70067,-0.88291 1.74848,-2.24381 2.32847,-3.02425 0.58,-0.78042 1.53175,-2.10866 2.11503,-2.95164 0.58327,-0.84297 1.50963,-2.23176 2.05857,-3.08618 0.54894,-0.85442 1.45623,-2.32142 2.0162,-3.25999 0.55996,-0.93858 1.4043,-2.42994 1.87631,-3.31413 0.472,-0.8842 1.26118,-2.42321 1.75374,-3.42004 0.49256,-0.99683 1.3136,-2.76781 1.82454,-3.93553 0.51095,-1.16771 1.21742,-2.8795 1.56995,-3.80397 0.35253,-0.92448 0.9515,-2.62556 1.33106,-3.78018 0.37955,-1.15462 0.89791,-2.84499 1.1519,-3.75637 0.25399,-0.91139 0.64672,-2.42605 0.87275,-3.36591 0.22602,-0.93987 0.59059,-2.64095 0.81015,-3.78018 0.21957,-1.13923 0.5289,-2.98012 0.68741,-4.09087 0.15852,-1.11075 0.3667,-2.81183 0.46264,-3.78018 0.0959,-0.96834 0.22852,-2.57621 0.29464,-3.57304 0.0661,-0.99683 0.12027,-3.47634 0.12032,-5.51002 7e-5,-2.03369 -0.055,-4.57365 -0.12231,-5.64437 -0.0674,-1.07072 -0.22638,-2.97207 -0.35341,-4.22523 -0.12704,-1.25315 -0.33356,-3.00084 -0.45893,-3.88374 -0.12538,-0.88291 -0.36037,-2.374264 -0.52221,-3.314129 -0.16183,-0.939866 -0.47525,-2.59434 -0.69647,-3.676609 -0.22122,-1.082269 -0.52822,-2.503719 -0.68219,-3.158777 -0.15399,-0.655058 -0.60229,-2.39109 -0.99623,-3.85785 -0.39395,-1.46676 -0.75392,-2.666836 -0.79995,-2.666836 -0.046,0 -1.00958,0.637104 -2.14123,1.415788 -1.13164,0.778684 -2.99206,2.092454 -4.13424,2.919488 -1.14219,0.827034 -2.75163,2.016567 -3.57654,2.643405 -0.82491,0.626839 -2.14881,1.653434 -2.94199,2.281323 -0.79318,0.627887 -2.14304,1.720282 -2.99968,2.427542 -0.85664,0.707262 -2.84878,2.433175 -4.42699,3.835364 -1.5782,1.402191 -3.70903,3.365021 -4.73516,4.361851 -1.02615,0.99683 -2.54092,2.51149 -3.36616,3.36591 -0.82524,0.85442 -2.09402,2.20597 -2.81949,3.00343 -0.72548,0.79746 -2.19129,2.49223 -3.25733,3.76615 -1.23633,1.47741 -1.91743,2.37757 -1.88072,2.4856 0.0317,0.0931 0.32316,1.03156 0.64779,2.08535 0.32462,1.05378 0.79079,2.66165 1.03593,3.57304 0.24516,0.91138 0.60679,2.35614 0.80365,3.21056 0.19686,0.85442 0.53458,2.48559 0.75049,3.62482 0.2159,1.13924 0.52116,3.00343 0.67833,4.14266 0.15717,1.13923 0.34305,2.63059 0.41306,3.31413 0.07,0.68354 0.17765,1.87196 0.23921,2.64094 0.0616,0.76898 0.14521,2.8662 0.18593,4.66049 0.0469,2.06671 0.0232,4.15432 -0.0646,5.69616 -0.0762,1.33859 -0.21414,3.22609 -0.30643,4.19444 -0.0923,0.96835 -0.24714,2.36649 -0.34408,3.10699 -0.097,0.7405 -0.30673,2.13865 -0.46618,3.107 -0.15943,0.96834 -0.44754,2.52961 -0.64023,3.46947 -0.19268,0.93987 -0.53056,2.45453 -0.75082,3.36591 -0.22027,0.91139 -0.60823,2.40274 -0.86213,3.31413 -0.25391,0.91138 -0.66902,2.30953 -0.92247,3.10699 -0.25345,0.79746 -0.72228,2.19561 -1.04182,3.107 -0.31955,0.91138 -0.84065,2.33283 -1.15801,3.15877 -0.31735,0.82594 -0.92984,2.3406 -1.36108,3.36591 -0.43123,1.02531 -1.17468,2.70309 -1.6521,3.72839 -0.47743,1.02531 -1.23055,2.58658 -1.67362,3.46948 -0.44307,0.8829 -1.29492,2.51408 -1.89301,3.62483 -0.59809,1.11075 -1.62302,2.92834 -2.27765,4.03909 -0.65462,1.11075 -1.73375,2.88173 -2.39809,3.93552 -0.66432,1.05379 -1.31608,2.0757 -1.44833,2.27091 -0.15574,0.22987 -0.1819,0.32274 -0.0742,0.26358 0.0914,-0.0502 0.91905,-0.62671 1.83915,-1.28103 z m -11.03623,-2.69801 c 0.1076,-0.73755 0.29619,-2.14735 0.41907,-3.13289 0.12289,-0.98555 0.30361,-2.69394 0.4016,-3.79643 0.098,-1.1025 0.17817,-2.39324 0.17817,-2.8683 0,-0.47506 -0.1036,-1.49657 -0.23021,-2.27004 -0.12662,-0.77346 -0.35733,-2.51205 -0.51269,-3.86353 -0.15536,-1.35147 -0.36999,-3.78547 -0.47695,-5.40888 -0.15308,-2.3233 -0.18095,-3.9217 -0.13091,-7.50856 0.0589,-4.22287 0.0468,-4.64423 -0.16454,-5.74794 -0.12545,-0.65506 -0.40816,-1.9833 -0.62822,-2.95165 -0.22007,-0.96834 -0.63421,-2.62282 -0.9203,-3.6766 -0.286098,-1.05379 -0.756228,-2.66166 -1.044748,-3.57305 -0.28851,-0.91138 -0.864,-2.58916 -1.27887,-3.72839 -0.414865,-1.13923 -1.086529,-2.875 -1.492587,-3.85727 -0.406058,-0.98227 -1.234343,-2.84646 -1.840634,-4.14266 -0.60629,-1.29619 -1.899913,-3.80147 -2.874717,-5.56727 -0.974804,-1.76581 -2.363167,-4.14266 -3.085251,-5.28189 -0.722085,-1.13923 -1.911412,-2.93352 -2.64295,-3.98731 -0.731539,-1.05379 -1.896429,-2.66389 -2.588645,-3.57799 -0.692214,-0.91411 -1.881583,-2.43773 -2.64304,-3.38583 -0.761456,-0.9481 -1.418284,-1.69155 -1.459617,-1.65212 -0.04134,0.0394 -0.236205,0.91059 -0.433046,1.9359 -0.196843,1.02531 -0.4632,2.51667 -0.591907,3.31413 -0.128707,0.79746 -0.332671,2.28882 -0.453255,3.31413 -0.120582,1.0253 -0.287663,2.58657 -0.371291,3.46947 -0.0986,1.041 -0.150754,3.27993 -0.148364,6.36934 0.0028,3.65921 0.05056,5.24443 0.2058,6.83538 0.111163,1.13923 0.331607,3.02673 0.489877,4.19444 0.15827,1.16772 0.417485,2.82219 0.576032,3.67661 0.158547,0.85443 0.446823,2.27588 0.640613,3.15878 0.19379,0.8829 0.583274,2.46747 0.865519,3.52126 0.282246,1.05379 0.697498,2.52184 0.922782,3.26234 0.225285,0.7405 0.716668,2.23186 1.091963,3.31413 0.375295,1.08227 0.987339,2.73674 1.360098,3.67661 0.372757,0.93986 0.948607,2.33801 1.279667,3.10699 0.33106,0.76898 1.102907,2.44676 1.715218,3.72839 0.612309,1.28164 1.979244,3.89151 3.037632,5.79973 1.058389,1.90821 2.403606,4.23845 2.989371,5.17832 0.585766,0.93986 1.688692,2.64094 2.450946,3.78017 0.762254,1.13923 1.903735,2.79371 2.536623,3.67661 0.632893,0.88291 1.903713,2.59564 2.824051,3.80607 0.92034,1.21043 1.70906,2.20079 1.75271,2.20079 0.0436,0 0.16739,-0.60345 0.275,-1.34099 z m 8.3495,-1.1705 c 0.64557,-1.03955 1.84869,-3.07851 2.67358,-4.53103 0.8249,-1.45252 1.9684,-3.56075 2.54111,-4.68496 0.57271,-1.1242 1.3358,-2.66216 1.69578,-3.41769 0.35996,-0.75553 1.00399,-2.16597 1.43119,-3.13431 0.42719,-0.96835 1.09181,-2.55292 1.47694,-3.52126 0.38511,-0.96835 0.98538,-2.55291 1.33392,-3.52126 0.34854,-0.96835 0.89533,-2.58083 1.21511,-3.58329 0.31977,-1.00246 0.81318,-2.6645 1.09646,-3.69345 0.2833,-1.02893 0.72244,-2.772 0.97588,-3.87349 0.25344,-1.1015 0.61849,-2.8649 0.81122,-3.91869 0.19273,-1.05379 0.45316,-2.61505 0.57873,-3.46948 0.12558,-0.85442 0.33341,-2.5788 0.46187,-3.83195 0.12845,-1.25316 0.29054,-3.75442 0.3602,-5.55836 0.092,-2.38194 0.0919,-4.04065 -8e-5,-6.05864 -0.0697,-1.52831 -0.20438,-3.59433 -0.29929,-4.59115 -0.0949,-0.99683 -0.27881,-2.6047 -0.40867,-3.57305 -0.12986,-0.96834 -0.36416,-2.483 -0.52066,-3.36591 -0.15651,-0.8829 -0.44363,-2.35095 -0.63806,-3.26234 -0.19442,-0.91138 -0.55686,-2.44935 -0.80541,-3.41769 -0.24856,-0.96835 -0.58377,-2.20338 -0.74492,-2.74451 -0.16117,-0.54114 -0.31979,-1.06612 -0.35252,-1.16663 -0.0327,-0.10051 -0.10569,-0.15713 -0.16213,-0.12582 -0.0564,0.0313 -0.72022,0.95244 -1.47506,2.04695 -0.75485,1.0945 -1.7621,2.59587 -2.23833,3.33637 -0.47622,0.7405 -1.29772,2.06874 -1.82553,2.95165 -0.52782,0.8829 -1.34497,2.32765 -1.81588,3.21056 -0.4709,0.8829 -1.1826,2.25891 -1.58153,3.05779 -0.39894,0.79888 -1.03982,2.15042 -1.42419,3.00342 -0.38437,0.85301 -0.95374,2.18009 -1.26526,2.94907 -0.31152,0.76898 -0.83085,2.12052 -1.15404,3.00342 -0.32321,0.88291 -0.82121,2.32766 -1.10669,3.21056 -0.28547,0.88291 -0.7258,2.35096 -0.97849,3.26235 -0.2527,0.91138 -0.64374,2.44934 -0.86897,3.41769 -0.22524,0.96835 -0.56481,2.57622 -0.75457,3.57304 -0.18978,0.99683 -0.47407,2.74451 -0.63177,3.88374 -0.1577,1.13924 -0.37179,2.93352 -0.47576,3.98731 -0.18449,1.86984 -0.18324,1.95215 0.0519,3.4177 0.13252,0.82594 0.34209,2.3173 0.46574,3.31412 0.12364,0.99683 0.3109,2.83772 0.41613,4.09088 0.10524,1.25315 0.22502,3.6067 0.26617,5.2301 0.0412,1.62341 0.0384,4.32649 -0.006,6.00686 l -0.0809,3.05521 0.46017,2.36782 c 0.25309,1.3023 0.68674,3.30631 0.96366,4.45335 0.27692,1.14705 0.62119,2.53994 0.76503,3.09531 0.14385,0.55538 0.29277,1.00978 0.33093,1.00978 0.0382,0 0.59758,-0.85054 1.24315,-1.89009 z m -6.5849,-45.54335 c 0.2842,-1.28163 0.72511,-3.07592 0.97979,-3.9873 0.25468,-0.91139 0.64455,-2.23963 0.86636,-2.95165 0.22183,-0.71202 0.69165,-2.11017 1.04403,-3.10699 0.35239,-0.99683 0.9406,-2.55809 1.30712,-3.46948 0.36652,-0.91138 1.03105,-2.47265 1.47672,-3.46947 0.44567,-0.99683 1.15666,-2.51149 1.57998,-3.36591 0.42331,-0.85443 1.37916,-2.64872 2.12408,-3.98731 0.74493,-1.3386 1.76028,-3.08628 2.25633,-3.88374 0.49605,-0.79747 1.47108,-2.3028 2.16672,-3.3452 0.69563,-1.0424 1.93395,-2.8037 2.7518,-3.91401 0.81784,-1.11031 1.48698,-2.07678 1.48698,-2.14771 0,-0.0709 -0.25399,-0.80299 -0.56443,-1.62679 -0.31045,-0.82381 -0.77291,-2.01049 -1.02771,-2.63707 -0.25482,-0.62657 -0.70705,-1.69849 -1.00498,-2.38202 -0.29792,-0.68354 -0.98059,-2.16625 -1.51704,-3.29491 -0.53643,-1.12866 -1.48986,-3.03413 -2.11872,-4.23438 -0.62884,-1.20024 -1.74963,-3.212903 -2.49063,-4.472575 -0.74099,-1.259672 -1.74925,-2.924823 -2.24057,-3.700337 -0.49134,-0.775514 -1.19404,-1.870729 -1.56155,-2.433812 -0.36752,-0.563082 -1.17022,-1.746162 -1.78379,-2.629066 -0.61356,-0.882904 -1.61374,-2.290889 -2.22263,-3.128857 -0.60889,-0.837966 -1.89762,-2.539045 -2.86384,-3.780175 -0.96623,-1.241129 -2.07976,-2.641555 -2.47451,-3.112055 l -0.717738,-0.855456 -1.08908,1.528638 c -0.59899,0.84075 -1.662539,2.390828 -2.363447,3.444617 -0.700909,1.053789 -1.765459,2.708263 -2.365667,3.676609 -0.600208,0.968346 -1.276456,2.063562 -1.502775,2.433812 -0.226317,0.37025 -1.085947,1.884909 -1.910287,3.365909 -0.824339,1.481001 -1.86209,3.415104 -2.306113,4.298008 -0.444022,0.882904 -1.150183,2.336632 -1.569245,3.230508 -0.419063,0.893882 -1.069039,2.338632 -1.444391,3.210562 -0.375352,0.87193 -1.028865,2.47083 -1.452251,3.5531 -0.423386,1.08226 -1.122013,3.01637 -1.552505,4.298 -0.430491,1.28164 -0.98353,3.03701 -1.228974,3.90082 l -0.446263,1.57057 0.354924,0.39719 c 0.195208,0.21846 1.054133,1.23608 1.908723,2.26139 0.854591,1.02531 2.151375,2.63318 2.881746,3.57304 0.730371,0.93987 1.925685,2.54774 2.656254,3.57304 0.730569,1.02531 1.747006,2.49337 2.25875,3.26235 0.511743,0.76898 1.461166,2.26034 2.109828,3.31412 0.648661,1.05379 1.608205,2.68496 2.13232,3.62483 0.524114,0.93987 1.373279,2.53542 1.887032,3.54567 0.513752,1.01025 1.304131,2.64143 1.756401,3.62483 0.45226,0.9834 1.05631,2.34726 1.34234,3.0308 0.28602,0.68353 0.851968,2.12164 1.257658,3.19577 0.4057,1.07414 0.96663,2.6354 1.24652,3.46947 0.27989,0.83408 0.64554,1.98255 0.81256,2.55217 0.16701,0.56961 0.33538,1.10557 0.37416,1.19101 0.0407,0.0897 0.11546,-0.0635 0.17689,-0.36248 0.0585,-0.28481 0.33893,-1.56644 0.62312,-2.84808 z M 78.065364,111.40177 c 0.328262,-1.02531 1.012015,-2.98271 1.519452,-4.34979 0.507437,-1.36708 1.34057,-3.4643 1.851405,-4.66049 0.510835,-1.19619 1.382783,-3.130298 1.937662,-4.29801 0.554879,-1.167711 1.382867,-2.84176 1.83997,-3.720106 0.457104,-0.878347 1.394812,-2.608256 2.083798,-3.844244 0.688984,-1.235988 1.834822,-3.197123 2.546305,-4.358078 0.711483,-1.160954 1.890631,-3.019621 2.620326,-4.130372 0.729696,-1.11075 1.753869,-2.631081 2.275941,-3.378515 l 0.94922,-1.35897 -2.033782,-0.07087 c -1.118581,-0.03898 -2.50104,-0.118616 -3.072133,-0.176976 -0.571092,-0.05836 -1.661359,-0.222235 -2.422816,-0.364169 -0.761457,-0.141933 -1.851724,-0.377648 -2.422816,-0.523809 -0.571093,-0.146161 -1.713278,-0.508917 -2.538189,-0.806125 -0.824911,-0.297208 -1.915179,-0.728522 -2.422816,-0.958477 -0.507638,-0.229956 -1.338318,-0.63813 -1.845956,-0.907054 -0.507638,-0.268924 -1.416194,-0.794205 -2.019013,-1.167293 -0.60282,-0.373089 -1.609087,-1.050815 -2.236149,-1.506059 -0.627061,-0.455245 -1.815436,-1.414657 -2.640832,-2.132027 -0.825397,-0.717369 -1.951339,-1.770357 -2.502092,-2.339973 -0.550754,-0.569615 -1.468522,-1.571621 -2.039484,-2.226678 -0.570962,-0.655058 -1.579763,-1.904875 -2.241779,-2.777373 l -1.203666,-1.586357 -0.139736,0.602476 c -0.07686,0.331363 -0.251378,1.045223 -0.387828,1.586358 -0.136449,0.541135 -0.454252,1.566443 -0.706229,2.278462 -0.251976,0.712019 -0.667924,1.76063 -0.924329,2.330245 -0.256405,0.569616 -0.765657,1.571621 -1.131671,2.226679 -0.366015,0.655058 -0.911179,1.563853 -1.211478,2.019546 -0.300298,0.455692 -0.849502,1.224673 -1.220453,1.708846 -0.370952,0.484173 -1.062994,1.317525 -1.53787,1.851894 -0.474878,0.534368 -1.388491,1.47753 -2.030254,2.095916 -0.641761,0.618386 -1.773381,1.604266 -2.514711,2.190845 -0.74133,0.586578 -1.81513,1.394327 -2.386223,1.794999 -0.571092,0.400671 -1.687318,1.125283 -2.480502,1.610248 -0.793184,0.484965 -1.883452,1.117905 -2.422817,1.406532 -0.539365,0.288627 -1.383167,0.730504 -1.875116,0.981948 l -0.894454,0.45717 0.877023,0.549679 c 0.482362,0.302323 2.078968,1.349174 3.548014,2.326336 1.469045,0.977162 3.553589,2.400585 4.632319,3.163162 1.07873,0.762578 2.817966,2.017353 3.864969,2.78839 1.047003,0.771038 2.916032,2.19462 4.153399,3.163517 1.237367,0.968897 3.210232,2.560885 4.384144,3.537747 1.173913,0.97687 3.297606,2.81962 4.719318,4.09501 1.421712,1.27539 3.602247,3.32129 4.845633,4.54646 1.243386,1.22516 2.695428,2.68358 3.226762,3.24093 0.531333,0.55734 0.981054,0.99969 0.999378,0.98299 0.01833,-0.0167 0.301895,-0.86926 0.630156,-1.89457 z m -6.745677,-10.02005 c -0.02592,-0.0712 -0.127895,-0.49464 -0.226615,-0.94097 -0.09872,-0.446331 -0.340545,-1.308522 -0.537392,-1.915981 -0.196848,-0.607459 -0.5632,-1.569935 -0.814117,-2.138835 -0.250916,-0.568901 -0.726078,-1.49325 -1.055913,-2.054109 -0.329837,-0.560858 -0.999093,-1.498099 -1.487239,-2.082758 -0.488144,-0.584658 -1.285902,-1.396976 -1.772794,-1.805151 -0.486892,-0.408174 -1.30887,-0.995155 -1.826619,-1.304402 -0.517749,-0.309246 -1.407311,-0.768331 -1.976803,-1.020188 -0.569493,-0.251857 -1.444361,-0.584117 -1.944152,-0.738354 -0.499791,-0.154238 -1.35643,-0.368124 -1.903641,-0.475303 -0.547212,-0.107179 -1.607621,-0.266945 -2.356464,-0.355034 -0.748843,-0.08809 -1.904007,-0.160164 -2.567032,-0.160164 h -1.205498 v -0.706825 c 0,-0.481904 -0.09178,-0.949063 -0.288431,-1.46807 -0.158637,-0.418685 -0.288431,-0.794561 -0.288431,-0.835279 0,-0.04072 0.558114,-0.274472 1.240252,-0.519451 0.682138,-0.244979 1.915688,-0.753422 2.741223,-1.129873 0.825534,-0.37645 1.837925,-0.887759 2.249758,-1.136241 0.411832,-0.248483 1.170015,-0.74473 1.684849,-1.102775 0.514836,-0.358044 1.26088,-0.968013 1.657878,-1.355486 0.396998,-0.387473 0.967738,-1.030732 1.268309,-1.429463 0.300571,-0.398731 0.664942,-0.933793 0.809712,-1.189027 0.14477,-0.255236 0.388155,-0.791192 0.540853,-1.191015 0.1527,-0.399823 0.352895,-1.169698 0.444879,-1.710832 0.09198,-0.541135 0.166617,-1.356721 0.165853,-1.812413 -8.07e-4,-0.455693 -0.07322,-1.247976 -0.16101,-1.76063 -0.08779,-0.512654 -0.266626,-1.304937 -0.397411,-1.76063 -0.130783,-0.455692 -0.340394,-1.09552 -0.4658,-1.421841 -0.125406,-0.32632 -0.186336,-0.61643 -0.1354,-0.644689 0.05094,-0.02826 0.759159,-0.263638 1.573827,-0.523064 0.81467,-0.259426 1.538745,-0.451867 1.609056,-0.427647 0.07031,0.02422 0.194632,0.246959 0.276266,0.494975 0.08163,0.248015 0.373462,0.946352 0.648506,1.551859 0.275044,0.605507 0.787097,1.614657 1.137896,2.242556 0.3508,0.627899 0.87833,1.507328 1.172289,1.954289 0.293961,0.44696 0.903711,1.274174 1.355002,1.838253 0.45129,0.56408 1.39367,1.560781 2.094175,2.214892 0.700506,0.654111 1.689302,1.478698 2.197326,1.832416 0.508023,0.353719 1.209226,0.80405 1.558226,1.000736 0.349001,0.196686 1.023929,0.547249 1.499839,0.779029 0.475911,0.23178 1.354709,0.596333 1.952885,0.81012 0.598176,0.213788 1.784034,0.546175 2.635241,0.738638 0.851206,0.192464 1.674334,0.349935 1.829175,0.349935 0.154841,0 0.308299,0.06262 0.341018,0.139162 0.03272,0.07654 0.0072,0.430853 -0.0568,0.787365 -0.113049,0.63015 -0.104961,0.668397 0.290413,1.373166 0.223686,0.398729 0.39039,0.735594 0.370453,0.748589 -0.01994,0.01299 -0.384295,0.195715 -0.809687,0.406047 -0.425391,0.210332 -1.179653,0.633609 -1.676137,0.940616 -0.496486,0.307006 -1.388233,0.968483 -1.98166,1.469947 -0.593429,0.501466 -1.348665,1.216252 -1.678306,1.588415 -0.32964,0.372163 -0.790295,0.945754 -1.023677,1.274648 -0.233383,0.328894 -0.680015,1.055362 -0.992518,1.614374 -0.312503,0.559011 -0.748514,1.501644 -0.968913,2.094739 -0.2204,0.593094 -0.513186,1.544403 -0.650636,2.114018 -0.13745,0.569616 -0.323846,1.594924 -0.414215,2.278462 -0.09037,0.683539 -0.164757,1.93022 -0.165309,2.770403 l -10e-4,1.527611 -0.721077,0.004 c -0.396592,0.002 -1.136416,0.071 -1.644054,0.15331 -0.507637,0.0823 -0.963544,0.15062 -1.013127,0.15174 -0.04958,0.001 -0.111357,-0.0562 -0.137277,-0.12742 z m 1.77823,-10.885186 c 0.192602,-0.435234 0.591351,-1.222565 0.886107,-1.749624 0.294756,-0.527061 0.817529,-1.33835 1.161716,-1.802866 0.344188,-0.464516 1.032336,-1.280102 1.529217,-1.812412 0.496882,-0.532312 1.33754,-1.304048 1.86813,-1.71497 0.53059,-0.41092 1.06444,-0.812263 1.186334,-0.89187 0.204218,-0.133374 0.158913,-0.163115 -0.576862,-0.378687 -0.439166,-0.12867 -1.421495,-0.499727 -2.182951,-0.824571 -0.761457,-0.324845 -1.825766,-0.838396 -2.365131,-1.141225 -0.539365,-0.302829 -1.396003,-0.84093 -1.903641,-1.19578 -0.507638,-0.35485 -1.297931,-0.957361 -1.756205,-1.338913 -0.458275,-0.381553 -1.239623,-1.121668 -1.736329,-1.644701 -0.496705,-0.523033 -1.156561,-1.264849 -1.466345,-1.648479 -0.309785,-0.383629 -0.578605,-0.683719 -0.597379,-0.666867 -0.01877,0.01685 -0.167783,0.444641 -0.331131,0.950641 -0.163347,0.505998 -0.454646,1.259939 -0.647329,1.675423 -0.192683,0.415485 -0.633848,1.160802 -0.980365,1.656262 -0.346518,0.495459 -0.985502,1.279767 -1.419965,1.742906 -0.434463,0.463139 -1.171728,1.146531 -1.638366,1.518651 -0.466639,0.372119 -1.237816,0.930962 -1.713726,1.241871 -0.475911,0.31091 -1.169519,0.734172 -1.541352,0.940585 l -0.67606,0.375293 0.445315,0.104351 c 0.244924,0.05739 0.76753,0.177826 1.161347,0.267632 0.393816,0.0898 1.177828,0.321478 1.742249,0.514828 0.56442,0.193351 1.356823,0.501358 1.760896,0.684461 0.404072,0.183103 1.151627,0.5647 1.661231,0.847994 0.509604,0.283294 1.289976,0.776372 1.734159,1.09573 0.444183,0.319356 1.241221,0.978224 1.771195,1.46415 0.529975,0.485924 1.26284,1.257007 1.62859,1.713515 0.365749,0.456509 0.96749,1.285046 1.337203,1.841194 l 0.672202,1.011177 0.31853,-1.022182 c 0.175193,-0.5622 0.476115,-1.378283 0.668716,-1.813517 z m 54.540853,19.064746 c 0.36369,-0.41177 1.29108,-1.42444 2.06087,-2.25038 0.76979,-0.82595 2.2777,-2.387 3.35091,-3.46902 1.0732,-1.08202 3.35305,-3.24391 5.06633,-4.804188 1.71327,-1.56028 4.07552,-3.635764 5.24943,-4.612186 1.17391,-0.976424 2.96507,-2.429425 3.98034,-3.228892 1.01528,-0.799467 2.78763,-2.158025 3.93856,-3.019017 1.15093,-0.860991 3.20167,-2.349815 4.5572,-3.308497 1.35553,-0.958682 2.71213,-1.902549 3.01466,-2.097482 0.30254,-0.194933 0.51021,-0.386767 0.46149,-0.426297 -0.0487,-0.03953 -0.45199,-0.17684 -0.89617,-0.305132 -0.44419,-0.128293 -1.58637,-0.505681 -2.53819,-0.838641 -0.95182,-0.33296 -2.61658,-0.996597 -3.69945,-1.474751 -1.08287,-0.478153 -2.49588,-1.155143 -3.14003,-1.504423 -0.64413,-0.349279 -1.65131,-0.938978 -2.23817,-1.310442 -0.58685,-0.371464 -1.57245,-1.050305 -2.1902,-1.508534 -0.61776,-0.45823 -1.68389,-1.357043 -2.36918,-1.997362 -0.68529,-0.64032 -1.61916,-1.608404 -2.07526,-2.151297 -0.4561,-0.542893 -1.12242,-1.402421 -1.48073,-1.910062 -0.3583,-0.507642 -0.98024,-1.528848 -1.38208,-2.269349 -0.40185,-0.7405 -0.99133,-2.045437 -1.30995,-2.89986 -0.31861,-0.854423 -0.70842,-2.089453 -0.86624,-2.744511 -0.15781,-0.655058 -0.30466,-1.284224 -0.32632,-1.398147 -0.0305,-0.160785 -0.16801,-0.04492 -0.61429,0.517832 -0.31622,0.398731 -1.07165,1.284224 -1.67874,1.967763 -0.60708,0.683538 -1.74926,1.825839 -2.53819,2.538445 -0.78891,0.712607 -2.03144,1.741688 -2.76117,2.286847 -0.72973,0.545158 -1.71616,1.245005 -2.19207,1.555213 -0.47591,0.310208 -1.35851,0.847658 -1.96133,1.194333 -0.60282,0.346676 -1.53733,0.853989 -2.0767,1.127362 -0.53936,0.273373 -1.58575,0.766989 -2.32532,1.096924 -0.73956,0.329934 -2.05159,0.859882 -2.9156,1.17766 -0.86401,0.317778 -2.42182,0.830634 -3.4618,1.13968 -1.03997,0.309047 -2.84301,0.771609 -4.00674,1.027916 -1.16372,0.256307 -2.84271,0.589877 -3.73108,0.741267 -0.88836,0.151389 -1.63336,0.290011 -1.65554,0.308049 -0.0222,0.01804 0.65777,0.909764 1.51101,1.981614 0.85324,1.07185 2.32986,2.997429 3.28137,4.279064 0.9515,1.281634 2.24895,3.075923 2.88318,3.987308 0.63425,0.911385 1.70211,2.498422 2.37305,3.52675 0.67092,1.028328 1.64749,2.56629 2.17015,3.417693 0.52266,0.851403 1.64072,2.783036 2.4846,4.292517 0.84387,1.509481 1.9302,3.536793 2.41403,4.505143 0.48384,0.96835 1.23479,2.52961 1.66877,3.46948 0.43398,0.93986 1.12364,2.50113 1.53258,3.46947 0.40894,0.96835 0.88801,2.14041 1.06461,2.60459 l 0.32109,0.84396 1.19254,-1.38987 c 0.65589,-0.76443 1.49009,-1.72677 1.85377,-2.13854 z m -1.67114,-11.962423 -0.72741,-0.267454 -0.81079,0.234411 c -0.44594,0.128927 -0.82547,0.218835 -0.84341,0.199798 -0.0179,-0.01904 -0.12581,-0.290941 -0.2397,-0.60423 -0.1139,-0.313288 -0.46213,-1.128874 -0.77386,-1.812413 -0.31174,-0.683538 -0.81299,-1.662241 -1.11389,-2.174895 -0.30091,-0.512654 -0.8533,-1.374845 -1.22754,-1.915979 -0.37423,-0.541135 -1.11238,-1.496536 -1.64032,-2.123113 -0.52795,-0.626577 -1.48619,-1.645102 -2.12943,-2.263391 -0.64324,-0.618287 -1.7145,-1.565896 -2.38058,-2.105798 -0.66607,-0.539901 -1.83839,-1.398472 -2.60516,-1.907935 -0.76676,-0.509464 -1.5388,-1.029908 -1.71564,-1.156545 l -0.32153,-0.230248 0.46538,-0.621399 c 0.44387,-0.59268 0.4654,-0.658493 0.46574,-1.424038 v -0.80264 h 0.41888 c 0.23038,0 0.94424,-0.07346 1.58637,-0.163253 0.64212,-0.08979 1.56974,-0.253875 2.06139,-0.364636 0.49166,-0.11076 1.27042,-0.322847 1.73058,-0.471304 0.46018,-0.148456 1.3346,-0.493717 1.94315,-0.767245 0.60855,-0.273527 1.6469,-0.822735 2.30744,-1.22046 0.66054,-0.397725 1.72016,-1.138887 2.3547,-1.647027 0.63455,-0.50814 1.49512,-1.2696 1.91239,-1.692134 0.41727,-0.422533 1.08136,-1.134907 1.47576,-1.583052 0.39441,-0.448145 1.09653,-1.333638 1.56029,-1.967763 0.46375,-0.634124 1.06198,-1.492412 1.32938,-1.907305 l 0.48618,-0.754351 1.09793,0.532884 1.09791,0.532886 0.97143,-0.07264 c 0.61888,-0.04628 0.97141,-0.03541 0.97141,0.02993 0,0.05641 0.10469,0.652253 0.23263,1.324086 0.12795,0.671833 0.38798,1.704125 0.57785,2.293981 0.18986,0.589858 0.47973,1.361396 0.64413,1.71453 0.16439,0.353135 0.5138,1.014902 0.77644,1.470594 0.26265,0.455693 0.77552,1.183756 1.13973,1.61792 0.36421,0.434164 0.98782,1.060184 1.38579,1.391155 0.39799,0.33097 1.15185,0.852479 1.67526,1.158907 0.5234,0.306429 1.28002,0.690798 1.68136,0.854154 0.40135,0.163357 1.06337,0.398011 1.47117,0.521455 0.40779,0.123445 1.33198,0.334466 2.05374,0.468938 0.72177,0.13447 1.32699,0.258112 1.34495,0.274758 0.018,0.01665 -0.0534,0.695559 -0.15857,1.508695 l -0.19123,1.478428 -1.67289,0.505103 c -0.9201,0.277808 -2.1142,0.675619 -2.65356,0.884026 -0.53937,0.208409 -1.66692,0.698414 -2.50568,1.088901 -0.83877,0.390488 -1.98095,0.976136 -2.53819,1.30144 -0.55725,0.325304 -1.45447,0.899012 -1.99384,1.274905 -0.53936,0.375895 -1.46869,1.103992 -2.06517,1.617995 -0.59649,0.514003 -1.46065,1.338235 -1.92037,1.831625 -0.45973,0.493392 -1.17188,1.355583 -1.58257,1.91598 -0.4107,0.560398 -1.02927,1.508257 -1.37463,2.106353 -0.34534,0.598096 -0.73874,1.332123 -0.87421,1.631171 -0.13547,0.299049 -0.28813,0.539216 -0.33924,0.533706 -0.0511,-0.0055 -0.42026,-0.130372 -0.82032,-0.277472 z m 0.53853,-5.813684 c 0.34741,-0.479087 1.02959,-1.317975 1.51593,-1.864196 0.48635,-0.54622 1.38512,-1.44351 1.99728,-1.993978 0.61217,-0.550467 1.64619,-1.386127 2.29783,-1.857022 0.65163,-0.470894 1.77666,-1.205812 2.50004,-1.63315 0.7234,-0.427337 2.24135,-1.202187 3.37324,-1.721886 l 2.05798,-0.944911 -0.54662,-0.236233 c -0.30064,-0.129927 -1.03983,-0.530963 -1.64265,-0.89119 -0.60282,-0.360226 -1.49934,-0.98998 -1.99227,-1.399454 -0.49293,-0.409474 -1.31157,-1.240829 -1.81921,-1.847455 -0.58527,-0.699401 -1.19155,-1.595569 -1.65702,-2.449319 -0.40373,-0.7405 -0.86836,-1.695901 -1.03253,-2.123113 -0.16416,-0.427211 -0.40273,-1.121271 -0.53014,-1.542356 -0.12743,-0.421083 -0.2528,-0.784557 -0.27859,-0.80772 -0.0258,-0.02316 -0.34622,0.344664 -0.71205,0.817391 -0.36582,0.472727 -1.05713,1.30225 -1.53626,1.843385 -0.47912,0.541135 -1.52278,1.567675 -2.31927,2.2812 -0.79648,0.713525 -1.89741,1.609684 -2.44651,1.991464 -0.5491,0.38178 -1.45766,0.953197 -2.01901,1.269816 -0.56136,0.316618 -1.53983,0.801681 -2.17438,1.077917 -0.63455,0.276236 -1.5431,0.627492 -2.01901,0.780569 -0.47591,0.153077 -1.26613,0.38245 -1.75605,0.509719 l -0.89076,0.231396 0.48696,0.334495 c 0.26782,0.183972 1.18785,0.93099 2.04451,1.660038 0.85666,0.729049 2.05568,1.857435 2.66449,2.507525 0.6088,0.65009 1.44944,1.608974 1.86808,2.130854 0.41864,0.521879 1.11461,1.478205 1.5466,2.125167 0.432,0.646962 1.04503,1.648149 1.3623,2.224861 l 0.57686,1.048565 0.22429,-0.325655 c 0.12335,-0.17911 0.50854,-0.717636 0.85594,-1.196724 z"
       id="path9411" /></g></svg>
