<?xml version="1.0" encoding="UTF-8" standalone="no"?>
<!-- Created with Inkscape (http://www.inkscape.org/) -->

<svg
   width="512"
   height="512"
   viewBox="0 0 135.46666 135.46667"
   version="1.1"
   id="svg5"
   xml:space="preserve"
   inkscape:version="1.2.2 (b0a8486541, 2022-12-01)"
   sodipodi:docname="lotuslogo.svg"
   xmlns:inkscape="http://www.inkscape.org/namespaces/inkscape"
   xmlns:sodipodi="http://sodipodi.sourceforge.net/DTD/sodipodi-0.dtd"
   xmlns:xlink="http://www.w3.org/1999/xlink"
   xmlns="http://www.w3.org/2000/svg"
   xmlns:svg="http://www.w3.org/2000/svg"><sodipodi:namedview
     id="namedview7"
     pagecolor="#ffffff"
     bordercolor="#000000"
     borderopacity="0.25"
     inkscape:showpageshadow="2"
     inkscape:pageopacity="0.0"
     inkscape:pagecheckerboard="0"
     inkscape:deskcolor="#d1d1d1"
     inkscape:document-units="mm"
     showgrid="false"
     inkscape:zoom="0.96852472"
     inkscape:cx="199.27215"
     inkscape:cy="264.83578"
     inkscape:window-width="1396"
     inkscape:window-height="700"
     inkscape:window-x="0"
     inkscape:window-y="0"
     inkscape:window-maximized="1"
     inkscape:current-layer="layer1" /><defs
     id="defs2"><linearGradient
       inkscape:collect="always"
       id="linearGradient9417"><stop
         style="stop-color:#590abb;stop-opacity:0.96624464;"
         offset="0"
         id="stop9413" /><stop
         style="stop-color:#0c10c9;stop-opacity:0.9671067;"
         offset="1"
         id="stop9415" /></linearGradient><linearGradient
       inkscape:collect="always"
       xlink:href="#linearGradient9417"
       id="linearGradient9419"
       x1="32.982853"
       y1="132.8374"
       x2="170.4012"
       y2="132.8374"
       gradientUnits="userSpaceOnUse"
       gradientTransform="matrix(0.73478935,0,0,0.73289021,-6.155762,-23.460783)" /></defs><g
     inkscape:label="Layer 1"
     inkscape:groupmode="layer"
     id="layer1"><ellipse
       style="opacity:1;fill:#dfc0ff;fill-opacity:1;stroke-width:73.3839;stroke-dasharray:none"
       id="path9421"
       cx="67.45005"
       cy="70.03672"
       rx="67.653625"
       ry="63.344776" /><path
       style="fill:url(#linearGradient9419);fill-opacity:1;stroke-width:0.0802159"
       d="m 67.440314,131.30197 c -0.279755,-0.17096 -1.119017,-0.68755 -1.865033,-1.14799 -0.746013,-0.46044 -1.966763,-1.22948 -2.712776,-1.70894 -0.746014,-0.47947 -2.138431,-1.40133 -3.094261,-2.04859 -0.95583,-0.64725 -2.40547,-1.65536 -3.221422,-2.24024 -0.815953,-0.58487 -1.826886,-1.32093 -2.246519,-1.63568 -0.419632,-0.31474 -1.335196,-1.01567 -2.034582,-1.55761 -0.699388,-0.54195 -1.88199,-1.48246 -2.628001,-2.09002 -0.746015,-0.60757 -2.228768,-1.87318 -3.295011,-2.81249 -1.066241,-0.93931 -2.597077,-2.33973 -3.401857,-3.11204 -0.804783,-0.77231 -1.929666,-1.88239 -2.499743,-2.46684 -0.570077,-0.58446 -1.445818,-1.50667 -1.946091,-2.04939 -0.500272,-0.54268 -1.349241,-1.49165 -1.886593,-2.10878 -0.537355,-0.61714 -1.371895,-1.60766 -1.854534,-2.20118 -0.482639,-0.59353 -1.417654,-1.79642 -2.077811,-2.67309 -0.660158,-0.87667 -1.516721,-2.055059 -1.903476,-2.618639 -0.386752,-0.56357 -1.033569,-1.537032 -1.437371,-2.163237 -0.4038,-0.626196 -1.0672,-1.692788 -1.474223,-2.370195 -0.407021,-0.677409 -1.046444,-1.804564 -1.42094,-2.50479 -0.374496,-0.700226 -0.961873,-1.841986 -1.305282,-2.537254 -0.343411,-0.695244 -0.908401,-1.907802 -1.255534,-2.69455 -0.347135,-0.786738 -0.824161,-1.925708 -1.06006,-2.53103 C 22.583296,83.424072 22.162436,82.279837 21.88395,81.48665 21.605464,80.693465 21.188386,79.412607 20.95711,78.640296 20.725834,77.867983 20.378969,76.612901 20.1863,75.851216 19.993631,75.08953 19.685935,73.74036 19.502533,72.85305 c -0.183403,-0.887302 -0.447252,-2.347638 -0.58633,-3.245194 -0.139078,-0.897549 -0.330081,-2.366268 -0.42445,-3.263816 -0.09438,-0.897557 -0.210373,-2.246726 -0.257786,-2.998167 -0.04742,-0.751439 -0.110228,-2.305547 -0.139592,-3.453575 -0.03044,-1.189642 -0.01225,-2.968697 0.04226,-4.136704 0.0526,-1.127163 0.133837,-2.510486 0.180518,-3.074071 0.04668,-0.563577 0.142423,-1.571185 0.212764,-2.239134 0.07034,-0.667944 0.205516,-1.778022 0.300394,-2.46684 0.09488,-0.688818 0.26697,-1.815976 0.382431,-2.504794 0.115458,-0.688818 0.325291,-1.833054 0.466291,-2.542744 0.140999,-0.709693 0.410363,-1.973475 0.598588,-2.808405 0.188224,-0.834932 0.37363,-1.547957 0.412015,-1.5845 0.03963,-0.03774 0.335805,-0.01266 0.685286,0.05801 0.360083,0.0728 0.646835,0.0964 0.691019,0.05683 0.04418,-0.03955 -0.03188,-0.258138 -0.183317,-0.52673 L 21.623781,37.66411 22.91461,37.061396 c 0.709956,-0.331492 1.634166,-0.783501 2.053798,-1.004465 0.419633,-0.220963 1.316122,-0.735304 1.992196,-1.14298 0.676075,-0.407677 1.638267,-1.035431 2.138204,-1.395012 0.499937,-0.359576 1.266642,-0.951358 1.703788,-1.315065 0.437145,-0.363709 1.078072,-0.934538 1.42428,-1.268509 0.346209,-0.333974 0.822217,-0.812161 1.057799,-1.062641 0.235581,-0.25048 0.636437,-0.711589 0.890794,-1.024688 0.254353,-0.313099 0.6559,-0.842521 0.892324,-1.176494 0.236425,-0.333973 0.623587,-0.931708 0.86036,-1.328299 0.236772,-0.396592 0.588752,-1.044631 0.782177,-1.440084 0.193425,-0.395452 0.517181,-1.163969 0.719456,-1.707813 0.202274,-0.543845 0.449266,-1.296214 0.54887,-1.671933 0.0996,-0.375719 0.236667,-0.939298 0.304586,-1.252397 0.06792,-0.313098 0.180005,-0.996225 0.249081,-1.518057 0.06908,-0.521832 0.126458,-1.136645 0.127518,-1.366251 9.94e-4,-0.229605 0.0253,-0.495555 0.05384,-0.590997 0.0488,-0.163106 0.09096,-0.172788 0.70158,-0.161117 0.58467,0.01118 0.696652,-0.01132 1.119423,-0.224956 0.25837,-0.130557 0.50717,-0.237375 0.552888,-0.237375 0.04572,0 0.268112,0.298867 0.49421,0.664149 0.226097,0.365284 0.716645,1.108182 1.090106,1.650887 0.373462,0.542706 0.927936,1.311221 1.232164,1.707813 0.304231,0.396594 0.885564,1.113876 1.291854,1.593961 0.406288,0.480085 1.117128,1.26568 1.579642,1.745765 0.462514,0.480085 1.274592,1.242085 1.80462,1.69333 0.530026,0.451248 1.347214,1.097528 1.815971,1.436181 0.468758,0.338651 1.273527,0.864259 1.788377,1.168019 0.514849,0.303758 1.411337,0.773642 1.992195,1.044187 0.580858,0.270544 1.456664,0.626942 1.946235,0.791994 0.489572,0.165052 1.214392,0.387309 1.610712,0.493904 0.396318,0.106596 1.12114,0.261135 1.61071,0.34342 0.489572,0.08229 1.297033,0.191597 1.794356,0.242914 0.61553,0.06351 1.468115,0.07709 2.67039,0.04249 0.971391,-0.02794 1.961265,-0.06971 2.199712,-0.09283 l 0.433554,-0.04202 0.106647,0.613853 c 0.05863,0.33762 0.130603,0.61333 0.159876,0.612692 0.02925,-6.08e-4 0.09919,-0.02733 0.155364,-0.0593 0.0758,-0.04312 0.08226,-0.184142 0.02506,-0.546294 -0.04239,-0.268488 -0.06812,-0.496136 -0.05724,-0.505885 0.01088,-0.0097 0.552751,-0.0881 1.204142,-0.174129 0.651383,-0.08602 1.716035,-0.243439 2.365874,-0.349816 0.649841,-0.106377 1.756148,-0.325556 2.458459,-0.48706 0.702304,-0.161507 1.830074,-0.453347 2.506146,-0.648536 0.676073,-0.19519 1.731399,-0.538376 2.345154,-0.762637 0.613755,-0.224261 1.567468,-0.606731 2.119361,-0.849932 0.551884,-0.243199 1.270465,-0.575591 1.596843,-0.738647 0.326389,-0.163056 0.961832,-0.508973 1.412112,-0.768706 0.450273,-0.259734 1.117874,-0.669053 1.483551,-0.909601 0.365677,-0.240549 1.007689,-0.695706 1.426723,-1.011462 0.419018,-0.315756 1.213139,-0.979346 1.764708,-1.474643 0.551568,-0.495299 1.357552,-1.297971 1.791067,-1.783716 0.433521,-0.485747 1.035033,-1.20766 1.336693,-1.604254 0.301659,-0.396592 0.740789,-1.011404 0.975846,-1.36625 0.235056,-0.354845 0.567506,-0.875729 0.738785,-1.157519 0.171271,-0.281789 0.329699,-0.512343 0.352066,-0.512343 0.02237,0 0.267372,0.102464 0.544469,0.227707 0.435072,0.196644 0.59665,0.227709 1.184419,0.227709 h 0.680616 v 0.56123 c 0,0.308675 0.03927,0.914949 0.08729,1.347277 0.04797,0.432324 0.146475,1.110529 0.218786,1.507122 0.07232,0.396592 0.222771,1.048231 0.334356,1.448087 0.111584,0.399856 0.340221,1.082981 0.508078,1.518056 0.167866,0.435075 0.526965,1.200922 0.798023,1.70188 0.27105,0.500959 0.757317,1.269476 1.080597,1.707815 0.323271,0.438339 0.874906,1.104386 1.225862,1.480105 0.350932,0.375718 0.977687,0.974846 1.392767,1.331392 0.41508,0.356547 1.05483,0.861763 1.42165,1.122702 0.36683,0.26094 1.09165,0.723794 1.61071,1.028566 0.51907,0.304773 1.30542,0.735091 1.74748,0.956262 0.44204,0.221175 1.16687,0.553427 1.61071,0.738339 0.44385,0.184914 1.11218,0.449557 1.48518,0.588096 0.37302,0.138538 1.15506,0.405719 1.73788,0.593734 0.58282,0.188016 1.51746,0.463608 2.07697,0.612431 0.55952,0.148821 1.17551,0.306603 1.3689,0.350626 l 0.35159,0.08004 -0.15703,0.546572 c -0.0863,0.300615 -0.14742,0.555174 -0.13567,0.565685 0.0118,0.01051 0.28055,-0.05052 0.59737,-0.135614 0.31681,-0.08509 0.59192,-0.140494 0.61135,-0.123098 0.0194,0.0174 0.24507,0.745774 0.5014,1.618613 0.25633,0.872841 0.65429,2.321343 0.88433,3.218894 0.23005,0.897551 0.57178,2.332114 0.75943,3.187919 0.18762,0.855806 0.45552,2.189466 0.59531,2.963692 0.13981,0.774225 0.34866,2.072164 0.46416,2.884305 0.11547,0.812152 0.26932,2.006052 0.3419,2.653121 0.0725,0.647075 0.19532,1.945009 0.27281,2.88431 0.0983,1.192955 0.14116,2.668879 0.14191,4.895737 7.4e-4,1.753352 -0.045,3.836884 -0.10118,4.63007 -0.0562,0.793184 -0.17749,2.147294 -0.2694,3.009129 -0.0919,0.861836 -0.26196,2.175689 -0.37788,2.919666 -0.11591,0.743987 -0.32754,1.951599 -0.4703,2.683588 -0.14274,0.73199 -0.41099,1.962775 -0.59609,2.735087 -0.18511,0.772312 -0.52374,2.053178 -0.75252,2.846362 -0.22877,0.793179 -0.66546,2.18469 -0.97041,3.09225 -0.30495,0.907538 -0.8769,2.444573 -1.27098,3.415621 -0.39406,0.971046 -0.96285,2.294949 -1.26395,2.942028 -0.30109,0.647071 -0.76582,1.620525 -1.03271,2.163224 -0.26691,0.542707 -0.8612,1.669862 -1.32065,2.504797 -0.45944,0.834935 -1.15944,2.054635 -1.55555,2.710445 -0.39609,0.65582 -1.07264,1.731744 -1.50342,2.390941 -0.43078,0.659207 -1.18057,1.760458 -1.66615,2.447268 -0.4856,0.68677 -1.11371,1.55777 -1.3958,1.93551 -0.28209,0.37775 -0.93397,1.21623 -1.44861,1.8633 -0.51463,0.64707 -1.35583,1.67177 -1.86934,2.27709 -0.5135,0.60532 -1.315136,1.52754 -1.781397,2.04937 -0.466268,0.52184 -1.268053,1.39281 -1.781763,1.93553 -0.513702,0.54271 -1.545191,1.60154 -2.292211,2.35297 -0.74701,0.75146 -2.464508,2.36962 -3.816668,3.59595 -1.352159,1.22635 -3.145139,2.79865 -3.984409,3.49402 -0.839269,0.69538 -2.021864,1.65828 -2.627999,2.1398 -0.606142,0.48152 -1.731514,1.35214 -2.500849,1.93472 -0.76932,0.58258 -1.990074,1.48693 -2.712776,2.0097 -0.722694,0.52276 -1.989934,1.4174 -2.816081,1.9881 l -1.502084,1.03763 -0.399117,-0.47173 c -0.21951,-0.25942 -0.405258,-0.4804 -0.412782,-0.49102 -0.0075,-0.0106 -0.124768,0.0164 -0.260541,0.0602 -0.181001,0.0583 -0.379504,0.27129 -0.743872,0.79813 -0.273342,0.39523 -0.532598,0.73829 -0.576133,0.76237 -0.04349,0.0242 -0.324653,-0.0994 -0.624719,-0.27447 l -0.545589,-0.31827 -0.531384,0.37251 c -0.292255,0.20488 -0.581601,0.39976 -0.642985,0.43309 -0.06944,0.0377 -0.152601,0.0103 -0.220018,-0.0722 -0.09816,-0.12018 -0.113268,-0.11096 -0.159853,0.0976 l -0.05143,0.23033 -0.533892,-0.10258 c -0.293643,-0.0564 -0.610191,-0.10331 -0.703443,-0.10422 -0.118623,-0.002 -0.293569,0.169 -0.582504,0.5666 -0.227124,0.31256 -0.417867,0.56657 -0.42387,0.56444 -0.0058,-0.002 -0.239805,-0.14369 -0.519562,-0.31466 z m 0.685919,-3.17114 0.05613,-0.37906 -0.662654,-0.81713 c -0.364455,-0.44942 -0.985514,-1.22699 -1.380131,-1.72796 -0.394613,-0.50095 -1.163104,-1.50857 -1.707758,-2.23913 -0.544653,-0.73056 -1.409373,-1.92604 -1.921598,-2.6566 -0.512226,-0.73057 -1.212121,-1.75526 -1.555321,-2.27708 -0.343202,-0.52184 -0.840295,-1.29035 -1.104652,-1.70782 -0.264358,-0.41747 -0.729954,-1.16892 -1.034655,-1.66986 -0.304702,-0.50097 -1.011648,-1.73059 -1.570993,-2.73251 -0.559342,-1.00193 -1.340879,-2.4708 -1.736744,-3.26421 -0.395865,-0.79339 -0.976493,-2.00594 -1.290284,-2.69455 -0.313791,-0.68861 -0.790668,-1.78143 -1.059729,-2.4285 -0.269062,-0.64708 -0.75883,-1.91086 -1.088375,-2.80841 -0.329548,-0.897547 -0.77404,-2.17439 -0.987765,-2.837421 -0.213723,-0.663041 -0.596402,-1.960979 -0.850398,-2.884303 -0.253995,-0.923343 -0.597607,-2.293612 -0.76358,-3.045048 -0.165973,-0.751437 -0.413437,-1.998133 -0.549916,-2.770451 -0.13648,-0.772312 -0.325411,-1.984862 -0.419846,-2.69455 -0.09444,-0.709695 -0.233003,-1.888085 -0.307932,-2.618647 -0.08552,-0.833771 -0.152932,-2.515169 -0.181091,-4.516219 -0.0282,-2.004513 -0.0082,-3.765531 0.05382,-4.743924 0.05428,-0.855804 0.154387,-2.085432 0.222471,-2.732501 0.06809,-0.647076 0.200935,-1.722996 0.295229,-2.390944 0.09429,-0.667941 0.266231,-1.743868 0.382086,-2.390937 0.115856,-0.647069 0.388218,-1.967861 0.605253,-2.935093 l 0.394607,-1.758593 -1.040616,-1.114036 C 48.349457,60.682625 47.246387,59.54438 46.470529,58.765919 45.694672,57.98745 44.106169,56.483054 42.940522,55.422818 41.774876,54.362575 40.21079,52.978804 39.464777,52.347765 38.718766,51.716725 37.41649,50.65004 36.570835,49.977342 35.72518,49.304651 34.351836,48.244324 33.518962,47.621062 32.686086,46.997801 31.337045,46.012963 30.521093,45.432535 29.705142,44.852106 28.007536,43.690752 26.748638,42.851746 25.489741,42.012739 24.129534,41.114553 23.725957,40.855773 23.322382,40.596993 22.9557,40.385266 22.911112,40.385266 c -0.04458,0 -0.12575,0.196399 -0.180358,0.436441 -0.05461,0.240041 -0.24804,1.170802 -0.429851,2.068351 -0.181812,0.897553 -0.40814,2.093022 -0.502953,2.6566 -0.0948,0.563578 -0.230161,1.400407 -0.300772,1.859619 -0.07062,0.459212 -0.203389,1.466822 -0.295056,2.239133 -0.09167,0.772318 -0.206956,1.865314 -0.256194,2.428891 -0.04924,0.563579 -0.128519,1.62243 -0.176184,2.352989 -0.04766,0.730567 -0.08685,2.643315 -0.08706,4.250556 -2.54e-4,1.78239 0.05017,3.632836 0.129267,4.743933 0.07131,1.001912 0.208246,2.487714 0.304282,3.301773 0.09603,0.814058 0.286684,2.175241 0.42366,3.024851 0.136975,0.849611 0.382858,2.181704 0.546409,2.960208 0.16355,0.778506 0.472884,2.098588 0.687411,2.933525 0.214526,0.834932 0.597997,2.184101 0.852159,2.99816 0.254162,0.814056 0.691092,2.111998 0.970955,2.88431 0.279863,0.772302 0.676988,1.820803 0.8825,2.330005 0.20551,0.509185 0.638275,1.516799 0.9617,2.239134 0.323424,0.722327 0.804566,1.757354 1.069206,2.300061 0.264639,0.542707 0.934013,1.806492 1.487496,2.808407 0.553482,1.001915 1.421381,2.487716 1.928663,3.30178 0.507282,0.814046 1.258564,1.975364 1.669516,2.580698 0.410955,0.605324 1.264959,1.799714 1.89779,2.654202 0.63283,0.854487 1.62337,2.135357 2.201202,2.846357 0.57783,0.711 1.511737,1.82215 2.075347,2.46922 0.563612,0.64707 1.406598,1.58637 1.873305,2.08734 0.466706,0.50096 1.24899,1.32071 1.73841,1.82166 0.489418,0.50097 1.291639,1.30364 1.782715,1.78373 0.491073,0.48008 1.732658,1.63687 2.759072,2.57066 1.026415,0.93376 2.610906,2.3171 3.521091,3.07406 0.910186,0.75694 2.264455,1.85633 3.009488,2.44306 0.745031,0.58672 1.907755,1.47726 2.583831,1.97898 0.676075,0.50172 1.877749,1.37284 2.670389,1.93585 0.792639,0.56299 2.127835,1.48556 2.9671,2.05014 0.839265,0.56459 2.155385,1.43135 2.924712,1.92614 0.769327,0.49477 1.836187,1.16763 2.370804,1.49522 0.893834,0.54769 0.977137,0.58327 1.035457,0.44209 0.0349,-0.0844 0.0887,-0.3241 0.119593,-0.53257 z m 3.843595,-0.7235 0.348378,-0.4939 -0.415759,-1.42264 c -0.29335,-1.00381 -0.430153,-1.36679 -0.464651,-1.2329 -0.02689,0.10437 -0.15116,0.80812 -0.276164,1.56389 l -0.227262,1.3741 0.287552,0.34972 c 0.158156,0.19232 0.312749,0.35104 0.343542,0.35266 0.03079,0.002 0.212753,-0.21928 0.404364,-0.49093 z m 5.092368,-1.92718 c 0.676073,-0.47954 1.992191,-1.44163 2.924713,-2.13795 0.932513,-0.69632 2.28678,-1.73652 3.009486,-2.31157 0.722697,-0.57505 2.019743,-1.63491 2.882323,-2.35526 0.862581,-0.72032 2.580683,-2.22674 3.818035,-3.34757 1.237336,-1.12083 2.763839,-2.55021 3.392216,-3.1764 0.628377,-0.62621 1.583969,-1.59966 2.123542,-2.16324 0.539565,-0.56358 1.398069,-1.4858 1.907762,-2.04937 0.50971,-0.56358 1.347662,-1.51996 1.862126,-2.12529 0.514465,-0.60533 1.356631,-1.63001 1.871461,-2.27708 0.51485,-0.64708 1.28476,-1.64446 1.71093,-2.21644 0.42618,-0.57197 1.12552,-1.545419 1.5541,-2.163227 0.42859,-0.617798 1.10926,-1.63563 1.51262,-2.261825 0.40335,-0.626206 1.07001,-1.701359 1.48148,-2.389218 0.41145,-0.68788 1.03186,-1.780883 1.37869,-2.428896 0.34682,-0.64802 0.92671,-1.775946 1.28863,-2.506516 0.36193,-0.730563 0.96522,-2.0285 1.34066,-2.884309 0.37543,-0.855801 0.89454,-2.110356 1.15358,-2.787887 0.25903,-0.677547 0.69915,-1.924251 0.97804,-2.77046 0.27891,-0.846209 0.65979,-2.085064 0.84642,-2.753004 0.18663,-0.66795 0.4752,-1.778029 0.64127,-2.466844 0.16609,-0.68882 0.43397,-1.935525 0.5953,-2.770456 0.16134,-0.834931 0.38863,-2.1841 0.5051,-2.998158 0.11649,-0.814058 0.26944,-2.060763 0.33994,-2.770457 0.0706,-0.709688 0.16791,-1.888079 0.2165,-2.618646 0.0485,-0.730568 0.0884,-2.547776 0.0885,-4.038241 8e-5,-1.49047 -0.0404,-3.351981 -0.0899,-4.136702 -0.0496,-0.784721 -0.16634,-2.178201 -0.25968,-3.09663 -0.0933,-0.918421 -0.24508,-2.199286 -0.33722,-2.846354 -0.0921,-0.647077 -0.26479,-1.740076 -0.3837,-2.428892 -0.11891,-0.68882 -0.34921,-1.901367 -0.51175,-2.694552 -0.16257,-0.793184 -0.38814,-1.83495 -0.50128,-2.315035 -0.11315,-0.480087 -0.44255,-1.752407 -0.73201,-2.827382 -0.28948,-1.074973 -0.55399,-1.954498 -0.5878,-1.954498 -0.0338,0 -0.74183,0.466929 -1.57336,1.037617 -0.8315,0.570691 -2.19854,1.533541 -3.03779,2.139665 -0.83928,0.606124 -2.02186,1.477922 -2.628,1.937325 -0.60614,0.459404 -1.57892,1.211786 -2.16175,1.67196 -0.58281,0.460171 -1.57468,1.260776 -2.20412,1.779121 -0.62946,0.518345 -2.09326,1.78325 -3.25291,2.810901 -1.159649,1.027652 -2.72536,2.466191 -3.479346,3.196758 -0.754002,0.730567 -1.867047,1.840645 -2.473421,2.466841 -0.606375,0.626197 -1.538664,1.616735 -2.071735,2.201185 -0.53307,0.584451 -1.610129,1.826531 -2.393448,2.760174 -0.90844,1.082779 -1.408905,1.742498 -1.381933,1.821672 0.02328,0.06822 0.237459,0.756022 0.475987,1.528332 0.238527,0.772306 0.581066,1.950699 0.761193,2.618647 0.180142,0.667941 0.445865,1.726792 0.59051,2.352987 0.144655,0.626197 0.392808,1.821664 0.551453,2.656596 0.158645,0.834937 0.382949,2.201184 0.498436,3.036114 0.115485,0.834931 0.252062,1.927933 0.303505,2.428893 0.05144,0.500962 0.130539,1.371941 0.175769,1.935519 0.04523,0.563578 0.106705,2.100611 0.136627,3.415629 0.03446,1.514665 0.01706,3.044659 -0.04747,4.17466 -0.056,0.981033 -0.157345,2.364365 -0.225157,3.07406 -0.06785,0.709697 -0.1816,1.734376 -0.252825,2.277083 -0.07124,0.542708 -0.225381,1.567395 -0.342549,2.27709 -0.117143,0.709687 -0.328847,1.85392 -0.470427,2.542742 -0.141581,0.688811 -0.389857,1.798902 -0.551702,2.466832 -0.161851,0.667969 -0.446917,1.760956 -0.63348,2.428896 -0.186569,0.66794 -0.491592,1.69263 -0.677823,2.27708 -0.18623,0.58446 -0.530726,1.60914 -0.765518,2.2771 -0.234799,0.66794 -0.617698,1.70971 -0.85089,2.31502 -0.233184,0.60534 -0.683241,1.71541 -1.000109,2.46686 -0.316861,0.75143 -0.863144,1.98105 -1.213944,2.73249 -0.350815,0.75144 -0.904197,1.89568 -1.229763,2.54274 -0.32556,0.64707 -0.95149,1.84255 -1.390959,2.65661 -0.439471,0.81405 -1.192578,2.14616 -1.673594,2.96021 -0.481009,0.81406 -1.273941,2.112 -1.762091,2.88431 -0.488135,0.77231 -0.967042,1.52125 -1.064217,1.66433 -0.114437,0.16846 -0.133659,0.23652 -0.05452,0.19317 0.06715,-0.0367 0.675308,-0.45931 1.351387,-0.93886 z m -8.109303,-1.97734 c 0.07906,-0.54054 0.217636,-1.57378 0.307928,-2.29607 0.0903,-0.7223 0.223089,-1.97436 0.295091,-2.78236 0.07201,-0.80802 0.130917,-1.75399 0.130917,-2.10215 0,-0.34816 -0.07611,-1.09681 -0.169155,-1.6637 -0.09303,-0.56685 -0.262562,-1.84105 -0.37672,-2.83154 -0.114157,-0.99048 -0.271864,-2.77433 -0.350458,-3.96412 -0.112481,-1.70271 -0.132958,-2.87417 -0.0962,-5.50294 0.04328,-3.094893 0.03439,-3.403721 -0.120902,-4.212611 -0.09218,-0.480083 -0.299912,-1.453534 -0.461609,-2.163227 C 67.950084,95.274409 67.645778,94.061847 67.435562,93.289543 67.22534,92.517231 66.879894,91.338842 66.667893,90.670888 66.4559,90.00295 66.033036,88.773319 65.728194,87.93839 c -0.304838,-0.834933 -0.798369,-2.107062 -1.096738,-2.826959 -0.298366,-0.71989 -0.906981,-2.086143 -1.352477,-3.036106 -0.445494,-0.949966 -1.396037,-2.786063 -2.11231,-4.0802 -0.716277,-1.294145 -1.736431,-3.036115 -2.267012,-3.871046 -0.530579,-0.83493 -1.404484,-2.149948 -1.942011,-2.92226 -0.537527,-0.772312 -1.393476,-1.95234 -1.902108,-2.622273 -0.508632,-0.669943 -1.382568,-1.78659 -1.942077,-2.481442 -0.559511,-0.694854 -1.042142,-1.239722 -1.072512,-1.210822 -0.03038,0.02888 -0.173562,0.667361 -0.318198,1.418801 -0.144638,0.75144 -0.340354,1.844442 -0.434926,2.428893 -0.09457,0.58445 -0.244445,1.677454 -0.333048,2.428895 -0.0886,0.751432 -0.211371,1.895671 -0.272821,2.542739 -0.07245,0.762939 -0.110772,2.403829 -0.109015,4.668028 0.002,2.681798 0.03716,3.843592 0.151218,5.009582 0.08169,0.834927 0.243663,2.21826 0.359957,3.074061 0.116296,0.85581 0.306764,2.068353 0.423263,2.69455 0.116498,0.626205 0.328321,1.667973 0.470714,2.315037 0.142395,0.647071 0.428585,1.808388 0.635974,2.5807 0.207392,0.772312 0.512516,1.848233 0.678052,2.390942 0.165536,0.542698 0.5266,1.635711 0.802363,2.428891 0.275762,0.793181 0.725486,2.005729 0.999386,2.694559 0.273898,0.6888 0.697025,1.7135 0.940284,2.27708 0.24326,0.56358 0.810406,1.7932 1.260325,2.73249 0.449918,0.93931 1.454327,2.85205 2.232019,4.25056 0.777693,1.39852 1.766145,3.10633 2.196558,3.79515 0.430416,0.68881 1.240834,1.93551 1.800929,2.77046 0.560096,0.83491 1.398845,2.04747 1.863884,2.69453 0.465043,0.64709 1.398828,1.90232 2.075082,2.78945 0.676257,0.88711 1.255801,1.61293 1.287874,1.61293 0.03203,0 0.122996,-0.44227 0.202067,-0.9828 z m 6.135124,-0.85785 c 0.474358,-0.76188 1.358397,-2.25622 1.964518,-3.32075 0.606127,-1.06453 1.446359,-2.60964 1.867181,-3.43356 0.42082,-0.82392 0.981531,-1.95107 1.24604,-2.50479 0.264495,-0.55371 0.737721,-1.58742 1.051623,-2.29711 0.313896,-0.70968 0.80225,-1.871 1.085238,-2.58068 0.282978,-0.70971 0.724046,-1.87102 0.980153,-2.58071 0.256105,-0.70969 0.657876,-1.89147 0.892849,-2.62616 0.234965,-0.73469 0.597519,-1.95277 0.805669,-2.70689 0.208167,-0.75409 0.530843,-2.031562 0.717065,-2.83885 0.186222,-0.807268 0.454456,-2.099638 0.596078,-2.871958 0.141613,-0.772319 0.332972,-1.916547 0.425238,-2.542752 0.09227,-0.626197 0.244989,-1.889974 0.339384,-2.808399 0.09439,-0.918426 0.213486,-2.751575 0.264671,-4.073665 0.06759,-1.745702 0.06751,-2.961352 -6.6e-5,-4.440312 -0.0512,-1.120087 -0.150171,-2.634253 -0.219913,-3.364813 -0.06975,-0.730567 -0.204861,-1.90896 -0.300284,-2.618654 -0.09542,-0.709687 -0.26758,-1.819766 -0.382576,-2.466841 -0.115005,-0.647068 -0.325973,-1.722989 -0.468837,-2.390937 -0.142864,-0.667943 -0.409176,-1.795106 -0.591812,-2.504793 -0.182635,-0.709693 -0.42895,-1.614834 -0.54736,-2.011422 -0.118427,-0.396598 -0.234974,-0.78135 -0.259022,-0.855013 -0.02403,-0.07366 -0.07762,-0.11516 -0.11913,-0.09221 -0.04143,0.02294 -0.52921,0.698033 -1.08386,1.50019 -0.554658,0.802149 -1.294776,1.902489 -1.644706,2.445194 -0.349918,0.542704 -0.953547,1.516157 -1.341376,2.163234 -0.387837,0.647069 -0.988271,1.705913 -1.33429,2.352988 -0.346013,0.647069 -0.868962,1.655533 -1.162092,2.241025 -0.293136,0.58549 -0.764048,1.576021 -1.04648,2.201175 -0.28243,0.625164 -0.700798,1.597768 -0.9297,2.161346 -0.2289,0.563575 -0.610498,1.554107 -0.847975,2.20118 -0.237491,0.647071 -0.603416,1.705912 -0.813183,2.352984 -0.209762,0.647072 -0.533312,1.722993 -0.718986,2.39094 -0.185681,0.667946 -0.473012,1.795101 -0.63851,2.504797 -0.165503,0.709688 -0.415015,1.888084 -0.554449,2.618646 -0.139449,0.730563 -0.348342,2.011421 -0.464219,2.84635 -0.115876,0.834944 -0.273187,2.149951 -0.349582,2.92225 -0.135562,1.370401 -0.134643,1.430724 0.03814,2.5048 0.09737,0.60534 0.251364,1.69834 0.342221,2.42889 0.09085,0.73057 0.228446,2.07974 0.305768,2.99816 0.07732,0.91843 0.165341,2.64331 0.195578,3.83309 0.03027,1.18979 0.02822,3.17086 -0.0044,4.40239 l -0.05945,2.23911 0.338128,1.73536 c 0.185967,0.95444 0.50461,2.42316 0.708087,3.26381 0.203479,0.84067 0.456443,1.86151 0.562135,2.26852 0.1057,0.40703 0.215126,0.74006 0.243166,0.74006 0.02807,0 0.439094,-0.62334 0.913453,-1.38522 z M 70.249502,89.266689 c 0.208827,-0.939292 0.532803,-2.25431 0.719938,-2.922257 0.187137,-0.667946 0.47361,-1.6414 0.636594,-2.163232 0.162997,-0.521833 0.508216,-1.54652 0.767142,-2.277082 0.258933,-0.730563 0.691142,-1.874799 0.960457,-2.542747 0.269315,-0.667943 0.757605,-1.812181 1.085078,-2.542741 0.327474,-0.730566 0.849901,-1.840646 1.160953,-2.466842 0.311044,-0.626204 1.013391,-1.941221 1.560751,-2.922261 0.547367,-0.981045 1.293435,-2.261903 1.657928,-2.846354 0.364492,-0.584457 1.080934,-1.687699 1.592082,-2.451663 0.511141,-0.763966 1.421047,-2.054806 2.021996,-2.86854 0.600939,-0.813736 1.092614,-1.522052 1.092614,-1.574037 0,-0.05196 -0.186628,-0.588502 -0.414735,-1.192256 -0.228121,-0.603763 -0.567927,-1.47347 -0.755153,-1.932685 -0.187242,-0.459206 -0.519533,-1.244806 -0.738444,-1.745758 -0.218912,-0.50096 -0.72053,-1.587624 -1.114708,-2.414807 -0.394163,-0.827185 -1.094734,-2.223684 -1.556813,-3.103336 -0.462066,-0.879643 -1.285609,-2.354706 -1.830088,-3.277906 -0.544472,-0.923201 -1.285331,-2.143575 -1.646349,-2.711942 -0.36103,-0.568365 -0.877366,-1.371037 -1.147409,-1.783715 -0.27005,-0.412677 -0.859865,-1.279745 -1.31071,-1.926817 -0.450838,-0.647072 -1.185759,-1.678971 -1.633164,-2.293109 -0.447407,-0.614137 -1.394351,-1.860841 -2.10432,-2.770454 -0.709975,-0.90961 -1.528186,-1.935968 -1.818243,-2.280793 l -0.527387,-0.626956 -0.800244,1.120325 c -0.440131,0.616176 -1.221616,1.752213 -1.736636,2.524524 -0.515021,0.772313 -1.29724,1.98486 -1.738267,2.694552 -0.441027,0.709691 -0.937926,1.512364 -1.104222,1.783717 -0.166296,0.271351 -0.797943,1.381431 -1.403659,2.466841 -0.605717,1.085412 -1.368245,2.502896 -1.694508,3.149968 -0.326263,0.647071 -0.845141,1.712495 -1.153064,2.367608 -0.307923,0.655118 -0.785519,1.71396 -1.061324,2.352988 -0.275803,0.639029 -0.755999,1.810848 -1.067098,2.604032 -0.3111,0.793179 -0.824443,2.210668 -1.140764,3.149963 -0.31632,0.939301 -0.722688,2.225795 -0.903036,2.858873 l -0.327911,1.151055 0.260796,0.291097 c 0.143435,0.160107 0.774566,0.90591 1.402508,1.65735 0.627945,0.75144 1.580808,1.929831 2.117478,2.618646 0.536668,0.688821 1.414972,1.867214 1.951785,2.618645 0.536815,0.75144 1.283683,1.827366 1.659707,2.390944 0.376022,0.563578 1.073648,1.656581 1.550278,2.428887 0.476629,0.772312 1.181692,1.967782 1.566807,2.656601 0.385112,0.688822 1.00907,1.858186 1.38657,2.598587 0.377501,0.740404 0.958262,1.935878 1.290585,2.656601 0.332317,0.720722 0.776166,1.720286 0.986337,2.221244 0.210165,0.50095 0.626018,1.554925 0.924114,2.34215 0.298104,0.787226 0.71027,1.931453 0.915929,2.542737 0.20566,0.611291 0.474336,1.452988 0.597061,1.870463 0.122717,0.417462 0.246433,0.810261 0.27493,0.872875 0.02991,0.06578 0.08484,-0.0465 0.129975,-0.265654 0.04298,-0.208738 0.249043,-1.148029 0.457863,-2.087329 z M 51.205837,58.18448 c 0.241203,-0.75144 0.743617,-2.185999 1.116477,-3.187919 0.372859,-1.001919 0.985036,-2.53895 1.360392,-3.415627 0.375357,-0.876676 1.016055,-2.294164 1.423774,-3.149969 0.407719,-0.855804 1.016116,-2.082698 1.35199,-2.72643 0.335876,-0.643731 1.024894,-1.911564 1.531153,-2.817407 0.506258,-0.905844 1.348207,-2.34314 1.870998,-3.193993 0.522791,-0.850852 1.389216,-2.213051 1.925386,-3.027109 0.536174,-0.814058 1.288727,-1.928293 1.672339,-2.47608 l 0.697476,-0.995975 -1.4944,-0.05195 C 61.839499,33.113461 60.823683,33.055111 60.40405,33.012326 59.984418,32.969556 59.183302,32.849452 58.623791,32.74543 58.06428,32.641409 57.263164,32.468655 56.843532,32.361534 56.423899,32.25441 55.584633,31.98855 54.978496,31.770729 54.372362,31.552908 53.571244,31.236803 53.198238,31.068271 52.82523,30.899739 52.214856,30.600591 51.84185,30.403499 c -0.373008,-0.19709 -1.040606,-0.582064 -1.483551,-0.855496 -0.442944,-0.273433 -1.18234,-0.770131 -1.643097,-1.103775 -0.460758,-0.333643 -1.333964,-1.036787 -1.940457,-1.562541 -0.606491,-0.525753 -1.433822,-1.297478 -1.838509,-1.714944 -0.404688,-0.417465 -1.079055,-1.151825 -1.498591,-1.631909 -0.419538,-0.480086 -1.160794,-1.396066 -1.647236,-2.03551 l -0.884441,-1.162625 -0.102674,0.441548 c -0.05648,0.242853 -0.18471,0.766034 -0.284973,1.162627 -0.100253,0.396593 -0.333779,1.14803 -0.518929,1.669862 -0.185149,0.521832 -0.490783,1.290348 -0.679186,1.707813 -0.188404,0.417466 -0.562597,1.151826 -0.831541,1.631912 -0.268944,0.480086 -0.669524,1.146132 -0.890181,1.480105 -0.220655,0.333972 -0.624205,0.897551 -0.896775,1.252396 -0.272573,0.354846 -0.781078,0.965601 -1.130011,1.357236 -0.348936,0.391633 -1.02025,1.082866 -1.49181,1.536075 -0.471559,0.45321 -1.303061,1.175752 -1.847782,1.605649 -0.544721,0.429899 -1.333738,1.021889 -1.753372,1.315537 -0.419632,0.293648 -1.239822,0.824709 -1.822646,1.180135 -0.582823,0.355426 -1.38394,0.819302 -1.780261,1.030834 -0.396319,0.211531 -1.016336,0.535379 -1.377814,0.71966 l -0.657235,0.335056 0.644426,0.402853 c 0.354435,0.22157 1.527603,0.988797 2.607043,1.70495 1.07944,0.716152 2.61114,1.759365 3.403779,2.31825 0.792639,0.558886 2.070611,1.478498 2.839939,2.043583 0.769326,0.565087 2.142668,1.608417 3.051873,2.318511 0.909204,0.710094 2.358844,1.876848 3.221422,2.59278 0.86258,0.715939 2.423046,2.066472 3.467705,3.001193 1.044658,0.934721 2.646893,2.434141 3.56052,3.332056 0.913626,0.897907 1.98057,1.966769 2.370989,2.375245 0.390418,0.40847 0.720869,0.732663 0.734333,0.720423 0.01347,-0.01224 0.221829,-0.637071 0.463032,-1.388511 z m -4.956653,-7.343596 c -0.01905,-0.05219 -0.09398,-0.362517 -0.166514,-0.689628 -0.07254,-0.327111 -0.250228,-0.959002 -0.394869,-1.404203 -0.144641,-0.445202 -0.413834,-1.15059 -0.598204,-1.567531 -0.184371,-0.416942 -0.533514,-1.094388 -0.775874,-1.505436 -0.242361,-0.411048 -0.734123,-1.097942 -1.092807,-1.526434 -0.358684,-0.42849 -0.944868,-1.023829 -1.30263,-1.322978 -0.357764,-0.299146 -0.961745,-0.729338 -1.342181,-0.955983 -0.380437,-0.226643 -1.034078,-0.563102 -1.452533,-0.747685 -0.418459,-0.184584 -1.061303,-0.428094 -1.428544,-0.541131 -0.367241,-0.113041 -0.996689,-0.269796 -1.398774,-0.348346 -0.402085,-0.07855 -1.181262,-0.195642 -1.731505,-0.260201 -0.550242,-0.06455 -1.399044,-0.117382 -1.886228,-0.117382 h -0.885786 v -0.518027 c 0,-0.353182 -0.06744,-0.695558 -0.211937,-1.075934 -0.116565,-0.306848 -0.211936,-0.582325 -0.211936,-0.612166 0,-0.02986 0.410096,-0.201159 0.911324,-0.380701 0.501227,-0.179543 1.407628,-0.552176 2.014221,-0.828074 0.606595,-0.275896 1.350488,-0.650629 1.653099,-0.83274 0.302609,-0.18211 0.859714,-0.545805 1.23801,-0.808212 0.378295,-0.262407 0.926481,-0.709448 1.218191,-0.993422 0.291709,-0.283975 0.711083,-0.755414 0.931939,-1.04764 0.220857,-0.292226 0.488592,-0.684368 0.594967,-0.871425 0.106376,-0.187062 0.285213,-0.579858 0.397414,-0.872884 0.112202,-0.293026 0.259303,-0.85726 0.326892,-1.253852 0.06758,-0.396592 0.122429,-0.994328 0.121867,-1.3283 -5.93e-4,-0.333973 -0.0538,-0.914628 -0.118308,-1.290349 -0.06451,-0.375718 -0.195914,-0.956375 -0.292014,-1.290348 -0.09611,-0.333973 -0.250118,-0.802896 -0.342265,-1.042053 -0.09215,-0.239157 -0.136917,-0.451775 -0.09949,-0.472487 0.03742,-0.02071 0.557822,-0.193217 1.156431,-0.383348 0.598611,-0.19013 1.130654,-0.331169 1.182318,-0.313418 0.05166,0.01776 0.143013,0.180994 0.202997,0.362762 0.05998,0.181768 0.274416,0.693573 0.476516,1.137342 0.202098,0.44377 0.578349,1.183366 0.836114,1.643547 0.257764,0.460182 0.645386,1.104707 0.861385,1.43228 0.215999,0.327571 0.664037,0.93383 0.99564,1.347239 0.331604,0.413408 1.024054,1.143881 1.538778,1.623271 0.514725,0.479391 1.241281,1.083724 1.614573,1.34296 0.373289,0.259237 0.888525,0.58928 1.144967,0.733428 0.256442,0.14415 0.752371,0.401075 1.102066,0.570944 0.349695,0.16987 0.995426,0.437046 1.434959,0.593728 0.439533,0.156684 1.310889,0.400287 1.936347,0.541341 0.625457,0.141056 1.230283,0.256464 1.344058,0.256464 0.113776,0 0.226535,0.04588 0.250577,0.101989 0.02404,0.05608 0.0053,0.31577 -0.04173,0.577053 -0.08307,0.46183 -0.07713,0.489861 0.213392,1.006379 0.164362,0.292224 0.286853,0.539109 0.272204,0.548635 -0.01466,0.0095 -0.282376,0.143436 -0.594949,0.297587 -0.312573,0.15415 -0.866796,0.464366 -1.231608,0.689369 -0.364811,0.225001 -1.020059,0.709792 -1.456103,1.07731 -0.436044,0.367519 -0.990984,0.891378 -1.2332,1.164132 -0.242217,0.272755 -0.580701,0.693134 -0.752188,0.934178 -0.171487,0.241043 -0.499667,0.773465 -0.729291,1.183158 -0.229624,0.409694 -0.550001,1.10054 -0.711948,1.535214 -0.161946,0.434674 -0.377083,1.131878 -0.47808,1.549343 -0.100996,0.417467 -0.237958,1.168905 -0.30436,1.669863 -0.06641,0.500958 -0.121062,1.414639 -0.121468,2.0304 l -7.35e-4,1.119572 -0.529839,0.003 c -0.291411,0.0014 -0.835027,0.05204 -1.208033,0.112359 -0.373008,0.06032 -0.708002,0.110388 -0.744436,0.111208 -0.03643,7.33e-4 -0.08182,-0.04119 -0.100874,-0.09339 z m 1.306626,-7.977647 c 0.141522,-0.318978 0.434517,-0.896005 0.651102,-1.282281 0.216583,-0.386279 0.600711,-0.980864 0.853616,-1.321303 0.252906,-0.340439 0.75855,-0.938174 1.123652,-1.328299 0.365104,-0.390125 0.98281,-0.955725 1.372683,-1.256884 0.389871,-0.30116 0.782139,-0.595299 0.871705,-0.653643 0.150057,-0.09775 0.116767,-0.119546 -0.423871,-0.277536 -0.322695,-0.09431 -1.044501,-0.366245 -1.60401,-0.60432 -0.55951,-0.238076 -1.341553,-0.614453 -1.737873,-0.836393 -0.396319,-0.221939 -1.025767,-0.616309 -1.398775,-0.876375 -0.373007,-0.260066 -0.953706,-0.701641 -1.290441,-0.981276 -0.336735,-0.279637 -0.910862,-0.822061 -1.275835,-1.205386 -0.364974,-0.383324 -0.849831,-0.926994 -1.077455,-1.208154 -0.227627,-0.281156 -0.425155,-0.50109 -0.438949,-0.48874 -0.01379,0.01234 -0.123285,0.325873 -0.243311,0.696716 -0.120026,0.37084 -0.334069,0.923397 -0.475651,1.227901 -0.141581,0.304504 -0.465744,0.85074 -0.720361,1.213857 -0.254618,0.363118 -0.724137,0.93793 -1.043375,1.277359 -0.319239,0.33943 -0.860975,0.840282 -1.203854,1.113005 -0.342882,0.272722 -0.909535,0.682293 -1.259227,0.910155 -0.349696,0.227863 -0.859352,0.538067 -1.132569,0.689346 l -0.496763,0.275047 0.327213,0.07649 c 0.179968,0.04206 0.563972,0.130326 0.853345,0.196145 0.289372,0.06582 0.865456,0.235609 1.280187,0.377311 0.414729,0.141707 0.996979,0.367442 1.293887,0.501636 0.296909,0.134194 0.846203,0.413864 1.220655,0.621486 0.374451,0.207623 0.94786,0.568996 1.274242,0.80305 0.326381,0.234053 0.912036,0.716931 1.301455,1.07306 0.389419,0.356131 0.927922,0.92125 1.19667,1.25582 0.268749,0.33457 0.710902,0.941796 0.982563,1.349392 l 0.493926,0.741082 0.234054,-0.749147 c 0.128729,-0.412031 0.349843,-1.010129 0.491365,-1.329108 z m 40.076035,13.972366 c 0.267238,-0.301782 0.948675,-1.043959 1.514309,-1.649281 0.565634,-0.605331 1.673626,-1.749408 2.462214,-2.54241 0.788571,-0.793002 2.463787,-2.37743 3.722686,-3.520943 1.258891,-1.143514 2.994646,-2.664616 3.857226,-3.380226 0.86257,-0.715611 2.1787,-1.780502 2.9247,-2.366423 0.74602,-0.585922 2.04832,-1.581595 2.89402,-2.212608 0.84569,-0.631011 2.35255,-1.722157 3.34858,-2.424765 0.99602,-0.702608 1.99284,-1.394359 2.21514,-1.537225 0.2223,-0.142863 0.3749,-0.283456 0.3391,-0.312427 -0.0359,-0.02897 -0.33212,-0.129605 -0.6585,-0.223629 -0.32639,-0.09403 -1.16565,-0.370609 -1.86503,-0.614631 -0.6994,-0.244023 -1.92264,-0.730398 -2.71832,-1.080832 -0.79568,-0.350433 -1.83395,-0.846592 -2.30726,-1.102576 -0.4733,-0.255983 -1.21337,-0.688167 -1.64458,-0.960411 -0.43121,-0.272241 -1.15542,-0.769757 -1.60934,-1.105589 -0.453924,-0.335832 -1.2373,-0.994564 -1.740846,-1.463847 -0.503547,-0.469285 -1.189737,-1.178783 -1.524879,-1.576665 -0.335136,-0.39788 -0.82474,-1.02782 -1.088029,-1.399865 -0.26327,-0.372046 -0.720269,-1.120478 -1.015534,-1.663183 -0.295271,-0.542706 -0.728421,-1.499081 -0.962534,-2.125279 -0.234111,-0.626198 -0.520544,-1.53134 -0.63651,-2.011425 -0.115952,-0.480085 -0.223857,-0.941195 -0.23977,-1.024689 -0.02245,-0.117837 -0.123456,-0.03292 -0.451375,0.379514 -0.232356,0.292226 -0.787436,0.941195 -1.233525,1.442154 -0.446073,0.500959 -1.285333,1.33814 -1.865034,1.860402 -0.579684,0.522263 -1.492679,1.276466 -2.028873,1.676008 -0.536202,0.39954 -1.26102,0.912452 -1.61071,1.1398 -0.349697,0.227348 -0.998221,0.62124 -1.441169,0.875315 -0.442942,0.254075 -1.129613,0.625879 -1.525931,0.826231 -0.39632,0.200353 -1.165193,0.56212 -1.708624,0.803926 -0.54342,0.241805 -1.507487,0.6302 -2.142352,0.863096 -0.634866,0.232896 -1.779528,0.608763 -2.543695,0.83526 -0.764158,0.226498 -2.089013,0.565504 -2.944109,0.75335 -0.855089,0.187845 -2.088793,0.432314 -2.741558,0.543267 -0.652757,0.110952 -1.200175,0.212546 -1.216473,0.225766 -0.01631,0.01323 0.483323,0.666756 1.110274,1.452304 0.626951,0.78555 1.711956,2.196788 2.411116,3.136085 0.699152,0.939297 1.652505,2.254314 2.11853,2.922259 0.46604,0.667945 1.250693,1.831068 1.743691,2.584719 0.492986,0.753653 1.210559,1.88081 1.594604,2.504795 0.384045,0.623986 1.205583,2.039659 1.825657,3.145943 0.620067,1.106285 1.418291,2.592082 1.773803,3.301775 0.355521,0.709695 0.907313,1.853926 1.226194,2.542748 0.318881,0.688814 0.825641,1.833054 1.126124,2.54274 0.300483,0.709695 0.652499,1.568686 0.782267,1.908879 l 0.235935,0.618531 0.876265,-1.018624 c 0.481933,-0.560242 1.094902,-1.265532 1.362125,-1.567314 z m -1.227934,-8.767142 -0.534495,-0.196014 -0.595756,0.171797 c -0.327678,0.09449 -0.606547,0.160382 -0.619728,0.14643 -0.01317,-0.01396 -0.09244,-0.213228 -0.176133,-0.442834 -0.08369,-0.229606 -0.339565,-0.827341 -0.568624,-1.328299 -0.229059,-0.500958 -0.597379,-1.21824 -0.818476,-1.593959 C 82.869593,44.449863 82.463707,43.81797 82.188721,43.42138 81.913736,43.024787 81.371355,42.324582 80.98343,41.86537 80.595498,41.406157 79.891393,40.659691 79.418747,40.206554 78.946101,39.753417 78.15895,39.058923 77.669523,38.663235 77.1801,38.267547 76.318694,37.638308 75.755279,37.264927 75.191872,36.891546 74.624585,36.510119 74.494645,36.417306 l -0.236258,-0.168745 0.341957,-0.455418 c 0.32615,-0.434368 0.34197,-0.482603 0.34222,-1.043663 v -0.588248 h 0.307789 c 0.169281,0 0.693818,-0.05384 1.165648,-0.119645 0.471824,-0.06581 1.153428,-0.186063 1.514687,-0.267238 0.361268,-0.08118 0.933492,-0.236613 1.271612,-0.345414 0.338136,-0.108802 0.98065,-0.361841 1.427806,-0.562307 0.447157,-0.200465 1.210128,-0.602974 1.695482,-0.894463 0.485355,-0.291489 1.263952,-0.83468 1.730212,-1.207091 0.46626,-0.37241 1.098597,-0.930477 1.405201,-1.240148 0.306606,-0.30967 0.79457,-0.831761 1.084375,-1.160202 0.289804,-0.328442 0.805719,-0.977411 1.146478,-1.442155 0.340759,-0.464743 0.780336,-1.093774 0.976815,-1.397844 l 0.357243,-0.552857 0.806747,0.390545 0.80673,0.390547 0.7138,-0.05324 c 0.454747,-0.0339 0.713776,-0.02594 0.713776,0.02195 0,0.04134 0.07696,0.47803 0.170939,0.970411 0.09402,0.49238 0.285083,1.248936 0.424601,1.681237 0.139501,0.4323 0.352497,0.997753 0.473293,1.256561 0.120797,0.258809 0.37754,0.743811 0.570522,1.077784 0.192991,0.333974 0.569843,0.867563 0.837464,1.185757 0.267619,0.318195 0.725837,0.777 1.018259,1.019564 0.292439,0.242564 0.846368,0.624774 1.230966,0.849352 0.38459,0.224579 0.940547,0.506279 1.235447,0.626001 0.294908,0.119723 0.781348,0.291698 1.081003,0.38217 0.299637,0.09047 0.978721,0.245126 1.509061,0.34368 0.53035,0.09856 0.97506,0.189167 0.98826,0.201367 0.0132,0.0122 -0.0393,0.509768 -0.11652,1.105708 l -0.14051,1.083525 -1.22922,0.370184 c -0.676086,0.203604 -1.553495,0.495156 -1.949814,0.647894 -0.396319,0.152741 -1.224836,0.511862 -1.841143,0.798046 -0.616324,0.286185 -1.455585,0.7154 -1.865033,0.953813 -0.409467,0.238411 -1.068734,0.658876 -1.465053,0.934364 -0.39632,0.27549 -1.079181,0.809106 -1.517466,1.185813 -0.438294,0.376707 -1.073273,0.980779 -1.411067,1.34238 -0.337809,0.361602 -0.861088,0.993493 -1.162855,1.404203 -0.301783,0.410711 -0.756297,1.105386 -1.010066,1.543725 -0.253754,0.438339 -0.542821,0.9763 -0.642361,1.19547 -0.09954,0.21917 -0.211712,0.395185 -0.249271,0.391148 -0.03752,-0.0041 -0.308799,-0.09555 -0.602763,-0.203357 z m 0.395706,-4.260791 c 0.255269,-0.351119 0.756529,-0.965932 1.113889,-1.366251 0.35737,-0.40032 1.017771,-1.057935 1.46758,-1.461367 0.449817,-0.403433 1.209602,-1.01588 1.688421,-1.360994 0.47881,-0.345113 1.305471,-0.883728 1.837001,-1.196918 0.531546,-0.313193 1.646926,-0.881072 2.478624,-1.261954 l 1.512179,-0.692516 -0.401646,-0.173134 c -0.220906,-0.09522 -0.764059,-0.389137 -1.207007,-0.653144 -0.442942,-0.264005 -1.101696,-0.725548 -1.463894,-1.025647 -0.362198,-0.300099 -0.963727,-0.909391 -1.336735,-1.35398 -0.430052,-0.512586 -0.875545,-1.169379 -1.217563,-1.795083 -0.296655,-0.542705 -0.638061,-1.242909 -0.75869,-1.556007 -0.120624,-0.3131 -0.295928,-0.821769 -0.389544,-1.130379 -0.09363,-0.308607 -0.185758,-0.574993 -0.204705,-0.59197 -0.01898,-0.01697 -0.254399,0.252601 -0.523204,0.599057 -0.268805,0.346458 -0.776774,0.954407 -1.128833,1.351 -0.352049,0.396593 -1.118917,1.148933 -1.704176,1.671868 -0.585243,0.522937 -1.394192,1.179721 -1.797669,1.459526 -0.403469,0.279802 -1.07107,0.698587 -1.483543,0.930635 -0.412481,0.232046 -1.13145,0.587543 -1.59771,0.789995 -0.466263,0.20245 -1.133856,0.459881 -1.483548,0.572071 -0.349693,0.11219 -0.93034,0.280295 -1.290327,0.373568 l -0.654521,0.169587 0.357813,0.245148 c 0.196792,0.134833 0.87282,0.682313 1.502285,1.216626 0.629464,0.534314 1.510492,1.361296 1.95784,1.837741 0.447341,0.476444 1.065029,1.179201 1.372646,1.561681 0.307606,0.382481 0.818998,1.083362 1.136421,1.557515 0.317432,0.474152 0.767878,1.207912 1.001004,1.630579 l 0.423872,0.768483 0.164808,-0.23867 c 0.09063,-0.131267 0.373664,-0.525948 0.628932,-0.877066 z"
       id="path9411" /></g></svg>
